<svg width="394" height="394" viewBox="0 0 394 394" fill="none" xmlns="http://www.w3.org/2000/svg">
<rect x="2.5" y="2.5" width="389" height="389" rx="27.5" fill="#050406" stroke="#B1B98E" stroke-width="5"/>
<path d="M32.38 50.126V42.222H45.262V70H36.408V50.126H32.38Z" fill="white"/>
<path d="M273.93 44.38V42.49H279.03V64H276.9V44.38H273.93ZM284.52 64.15C284.08 64.15 283.71 64 283.41 63.7C283.13 63.4 282.99 63.03 282.99 62.59C282.99 62.15 283.13 61.79 283.41 61.51C283.71 61.21 284.08 61.06 284.52 61.06C284.94 61.06 285.29 61.21 285.57 61.51C285.87 61.79 286.02 62.15 286.02 62.59C286.02 63.03 285.87 63.4 285.57 63.7C285.29 64 284.94 64.15 284.52 64.15ZM289.159 53.05C289.159 49.61 289.689 46.94 290.749 45.04C291.809 43.14 293.709 42.19 296.449 42.19C299.189 42.19 301.089 43.14 302.149 45.04C303.209 46.94 303.739 49.61 303.739 53.05C303.739 56.55 303.209 59.26 302.149 61.18C301.089 63.1 299.189 64.06 296.449 64.06C293.689 64.06 291.779 63.1 290.719 61.18C289.679 59.26 289.159 56.55 289.159 53.05ZM301.669 53.05C301.669 51.19 301.539 49.62 301.279 48.34C301.019 47.06 300.509 46.03 299.749 45.25C298.989 44.47 297.889 44.08 296.449 44.08C295.009 44.08 293.909 44.47 293.149 45.25C292.389 46.03 291.879 47.06 291.619 48.34C291.359 49.62 291.229 51.19 291.229 53.05C291.229 54.97 291.359 56.58 291.619 57.88C291.879 59.16 292.389 60.19 293.149 60.97C293.909 61.75 295.009 62.14 296.449 62.14C297.889 62.14 298.989 61.75 299.749 60.97C300.509 60.19 301.019 59.16 301.279 57.88C301.539 56.58 301.669 54.97 301.669 53.05ZM307.645 53.05C307.645 49.61 308.175 46.94 309.235 45.04C310.295 43.14 312.195 42.19 314.935 42.19C317.675 42.19 319.575 43.14 320.635 45.04C321.695 46.94 322.225 49.61 322.225 53.05C322.225 56.55 321.695 59.26 320.635 61.18C319.575 63.1 317.675 64.06 314.935 64.06C312.175 64.06 310.265 63.1 309.205 61.18C308.165 59.26 307.645 56.55 307.645 53.05ZM320.155 53.05C320.155 51.19 320.025 49.62 319.765 48.34C319.505 47.06 318.995 46.03 318.235 45.25C317.475 44.47 316.375 44.08 314.935 44.08C313.495 44.08 312.395 44.47 311.635 45.25C310.875 46.03 310.365 47.06 310.105 48.34C309.845 49.62 309.715 51.19 309.715 53.05C309.715 54.97 309.845 56.58 310.105 57.88C310.365 59.16 310.875 60.19 311.635 60.97C312.395 61.75 313.495 62.14 314.935 62.14C316.375 62.14 317.475 61.75 318.235 60.97C318.995 60.19 319.505 59.16 319.765 57.88C320.025 56.58 320.155 54.97 320.155 53.05ZM339.002 44.14L330.632 64H328.502L336.962 44.32H324.962V42.52H339.002V44.14ZM346.298 52.84C345.058 52.44 344.108 51.81 343.448 50.95C342.808 50.09 342.488 49.05 342.488 47.83C342.488 46.75 342.758 45.79 343.298 44.95C343.858 44.09 344.668 43.42 345.728 42.94C346.788 42.44 348.058 42.19 349.538 42.19C351.018 42.19 352.288 42.44 353.348 42.94C354.408 43.42 355.208 44.09 355.748 44.95C356.308 45.79 356.588 46.75 356.588 47.83C356.588 49.03 356.258 50.07 355.598 50.95C354.958 51.83 354.018 52.46 352.778 52.84C354.138 53.18 355.208 53.83 355.988 54.79C356.768 55.75 357.158 56.92 357.158 58.3C357.158 59.58 356.838 60.7 356.198 61.66C355.578 62.6 354.688 63.33 353.528 63.85C352.388 64.37 351.058 64.63 349.538 64.63C348.018 64.63 346.678 64.37 345.518 63.85C344.378 63.33 343.488 62.6 342.848 61.66C342.228 60.7 341.918 59.58 341.918 58.3C341.918 56.92 342.308 55.75 343.088 54.79C343.868 53.83 344.938 53.18 346.298 52.84ZM354.548 48.07C354.548 46.75 354.098 45.73 353.198 45.01C352.298 44.29 351.078 43.93 349.538 43.93C347.998 43.93 346.778 44.29 345.878 45.01C344.978 45.71 344.528 46.73 344.528 48.07C344.528 49.31 344.988 50.3 345.908 51.04C346.828 51.78 348.038 52.15 349.538 52.15C351.038 52.15 352.248 51.78 353.168 51.04C354.088 50.3 354.548 49.31 354.548 48.07ZM349.538 53.77C347.898 53.77 346.558 54.14 345.518 54.88C344.478 55.62 343.958 56.74 343.958 58.24C343.958 59.68 344.458 60.81 345.458 61.63C346.458 62.45 347.818 62.86 349.538 62.86C351.238 62.86 352.588 62.45 353.588 61.63C354.588 60.79 355.088 59.66 355.088 58.24C355.088 56.76 354.568 55.65 353.528 54.91C352.508 54.15 351.178 53.77 349.538 53.77Z" fill="white"/>
<path d="M232.648 153.052V241H215.008V203.578H177.334V241H159.694V153.052H177.334V189.214H215.008V153.052H232.648Z" fill="white"/>
<path d="M140.1 325.94V347H134.97V338.33H126.99V347H121.86V325.94H126.99V334.19H134.97V325.94H140.1ZM160.903 330.26L150.403 354.95H144.883L148.723 346.43L141.913 330.26H147.643L151.513 340.73L155.353 330.26H160.903ZM161.738 338.6C161.738 336.88 162.058 335.37 162.698 334.07C163.358 332.77 164.248 331.77 165.368 331.07C166.488 330.37 167.738 330.02 169.118 330.02C170.218 330.02 171.218 330.25 172.118 330.71C173.038 331.17 173.758 331.79 174.278 332.57V324.8H179.408V347H174.278V344.6C173.798 345.4 173.108 346.04 172.208 346.52C171.328 347 170.298 347.24 169.118 347.24C167.738 347.24 166.488 346.89 165.368 346.19C164.248 345.47 163.358 344.46 162.698 343.16C162.058 341.84 161.738 340.32 161.738 338.6ZM174.278 338.63C174.278 337.35 173.918 336.34 173.198 335.6C172.498 334.86 171.638 334.49 170.618 334.49C169.598 334.49 168.728 334.86 168.008 335.6C167.308 336.32 166.958 337.32 166.958 338.6C166.958 339.88 167.308 340.9 168.008 341.66C168.728 342.4 169.598 342.77 170.618 342.77C171.638 342.77 172.498 342.4 173.198 341.66C173.918 340.92 174.278 339.91 174.278 338.63ZM188.25 333.05C188.85 332.13 189.6 331.41 190.5 330.89C191.4 330.35 192.4 330.08 193.5 330.08V335.51H192.09C190.81 335.51 189.85 335.79 189.21 336.35C188.57 336.89 188.25 337.85 188.25 339.23V347H183.12V330.26H188.25V333.05ZM203.572 347.24C201.932 347.24 200.452 346.89 199.132 346.19C197.832 345.49 196.802 344.49 196.042 343.19C195.302 341.89 194.932 340.37 194.932 338.63C194.932 336.91 195.312 335.4 196.072 334.1C196.832 332.78 197.872 331.77 199.192 331.07C200.512 330.37 201.992 330.02 203.632 330.02C205.272 330.02 206.752 330.37 208.072 331.07C209.392 331.77 210.432 332.78 211.192 334.1C211.952 335.4 212.332 336.91 212.332 338.63C212.332 340.35 211.942 341.87 211.162 343.19C210.402 344.49 209.352 345.49 208.012 346.19C206.692 346.89 205.212 347.24 203.572 347.24ZM203.572 342.8C204.552 342.8 205.382 342.44 206.062 341.72C206.762 341 207.112 339.97 207.112 338.63C207.112 337.29 206.772 336.26 206.092 335.54C205.432 334.82 204.612 334.46 203.632 334.46C202.632 334.46 201.802 334.82 201.142 335.54C200.482 336.24 200.152 337.27 200.152 338.63C200.152 339.97 200.472 341 201.112 341.72C201.772 342.44 202.592 342.8 203.572 342.8ZM221.413 330.02C222.593 330.02 223.623 330.26 224.503 330.74C225.403 331.22 226.093 331.85 226.573 332.63V330.26H231.703V346.97C231.703 348.51 231.393 349.9 230.773 351.14C230.173 352.4 229.243 353.4 227.983 354.14C226.743 354.88 225.193 355.25 223.333 355.25C220.853 355.25 218.843 354.66 217.303 353.48C215.763 352.32 214.883 350.74 214.663 348.74H219.733C219.893 349.38 220.273 349.88 220.873 350.24C221.473 350.62 222.213 350.81 223.093 350.81C224.153 350.81 224.993 350.5 225.613 349.88C226.253 349.28 226.573 348.31 226.573 346.97V344.6C226.073 345.38 225.383 346.02 224.503 346.52C223.623 347 222.593 347.24 221.413 347.24C220.033 347.24 218.783 346.89 217.663 346.19C216.543 345.47 215.653 344.46 214.993 343.16C214.353 341.84 214.033 340.32 214.033 338.6C214.033 336.88 214.353 335.37 214.993 334.07C215.653 332.77 216.543 331.77 217.663 331.07C218.783 330.37 220.033 330.02 221.413 330.02ZM226.573 338.63C226.573 337.35 226.213 336.34 225.493 335.6C224.793 334.86 223.933 334.49 222.913 334.49C221.893 334.49 221.023 334.86 220.303 335.6C219.603 336.32 219.253 337.32 219.253 338.6C219.253 339.88 219.603 340.9 220.303 341.66C221.023 342.4 221.893 342.77 222.913 342.77C223.933 342.77 224.793 342.4 225.493 341.66C226.213 340.92 226.573 339.91 226.573 338.63ZM251.195 338.36C251.195 338.84 251.165 339.34 251.105 339.86H239.495C239.575 340.9 239.905 341.7 240.485 342.26C241.085 342.8 241.815 343.07 242.675 343.07C243.955 343.07 244.845 342.53 245.345 341.45H250.805C250.525 342.55 250.015 343.54 249.275 344.42C248.555 345.3 247.645 345.99 246.545 346.49C245.445 346.99 244.215 347.24 242.855 347.24C241.215 347.24 239.755 346.89 238.475 346.19C237.195 345.49 236.195 344.49 235.475 343.19C234.755 341.89 234.395 340.37 234.395 338.63C234.395 336.89 234.745 335.37 235.445 334.07C236.165 332.77 237.165 331.77 238.445 331.07C239.725 330.37 241.195 330.02 242.855 330.02C244.475 330.02 245.915 330.36 247.175 331.04C248.435 331.72 249.415 332.69 250.115 333.95C250.835 335.21 251.195 336.68 251.195 338.36ZM245.945 337.01C245.945 336.13 245.645 335.43 245.045 334.91C244.445 334.39 243.695 334.13 242.795 334.13C241.935 334.13 241.205 334.38 240.605 334.88C240.025 335.38 239.665 336.09 239.525 337.01H245.945ZM264.101 330.08C266.061 330.08 267.621 330.72 268.781 332C269.961 333.26 270.551 335 270.551 337.22V347H265.451V337.91C265.451 336.79 265.161 335.92 264.581 335.3C264.001 334.68 263.221 334.37 262.241 334.37C261.261 334.37 260.481 334.68 259.901 335.3C259.321 335.92 259.031 336.79 259.031 337.91V347H253.901V330.26H259.031V332.48C259.551 331.74 260.251 331.16 261.131 330.74C262.011 330.3 263.001 330.08 264.101 330.08Z" fill="white"/>
</svg>
