<svg width="22" height="21" viewBox="0 0 22 21" fill="none" xmlns="http://www.w3.org/2000/svg">
<path d="M15 20V12C15 11.7348 14.8595 11.4804 14.6095 11.2929C14.3594 11.1054 14.0203 11 13.6667 11H8.33333C7.97971 11 7.64057 11.1054 7.39052 11.2929C7.14048 11.4804 7 11.7348 7 12V20" stroke="black" stroke-width="2" stroke-linecap="round" stroke-linejoin="round"/>
<path d="M1 8.99948C0.999923 8.70855 1.07037 8.4211 1.20643 8.1572C1.34249 7.89329 1.54089 7.65928 1.78778 7.47148L9.56556 1.47248C9.96665 1.16739 10.4748 1 11 1C11.5252 1 12.0333 1.16739 12.4344 1.47248L20.2122 7.47148C20.4591 7.65928 20.6575 7.89329 20.7936 8.1572C20.9296 8.4211 21.0001 8.70855 21 8.99948V17.9995C21 18.5299 20.7659 19.0386 20.3491 19.4137C19.9324 19.7888 19.3671 19.9995 18.7778 19.9995H3.22222C2.63285 19.9995 2.06762 19.7888 1.65087 19.4137C1.23413 19.0386 1 18.5299 1 17.9995V8.99948Z" stroke="black" stroke-width="2" stroke-linecap="round" stroke-linejoin="round"/>
</svg>
