<svg width="394" height="394" viewBox="0 0 394 394" fill="none" xmlns="http://www.w3.org/2000/svg">
<rect x="2.5" y="2.5" width="389" height="389" rx="27.5" fill="#050406" stroke="#B1B98E" stroke-width="5"/>
<path d="M33.71 50.924C33.786 47.9093 34.66 45.604 36.332 44.008C38.0293 42.412 40.4233 41.614 43.514 41.614C45.5153 41.614 47.2253 41.956 48.644 42.64C50.0627 43.324 51.1267 44.2487 51.836 45.414C52.5707 46.5793 52.938 47.8967 52.938 49.366C52.938 51.1393 52.52 52.5327 51.684 53.546C50.848 54.534 49.9107 55.2053 48.872 55.56V55.712C51.912 56.852 53.432 58.9673 53.432 62.058C53.432 63.6793 53.052 65.1107 52.292 66.352C51.532 67.5933 50.4427 68.556 49.024 69.24C47.6307 69.924 45.9713 70.266 44.046 70.266C40.7527 70.266 38.1687 69.4807 36.294 67.91C34.4193 66.3393 33.4567 63.882 33.406 60.538H41.614C41.5633 61.45 41.69 62.1467 41.994 62.628C42.3233 63.084 42.8807 63.312 43.666 63.312C44.122 63.312 44.502 63.1473 44.806 62.818C45.11 62.4633 45.262 62.0073 45.262 61.45C45.262 60.7407 45.0213 60.2087 44.54 59.854C44.084 59.474 43.2987 59.284 42.184 59.284H40.778V52.482H42.146C43.8687 52.5833 44.73 51.8993 44.73 50.43C44.73 49.7967 44.5907 49.328 44.312 49.024C44.0587 48.72 43.7293 48.568 43.324 48.568C42.3867 48.568 41.918 49.3533 41.918 50.924H33.71Z" fill="white"/>
<path d="M287.31 47.74C286.87 45.14 285.36 43.84 282.78 43.84C280.82 43.84 279.35 44.6 278.37 46.12C277.39 47.64 276.94 50.13 277.02 53.59C277.42 52.39 278.18 51.45 279.3 50.77C280.44 50.07 281.74 49.72 283.2 49.72C285.3 49.72 286.96 50.37 288.18 51.67C289.42 52.95 290.04 54.72 290.04 56.98C290.04 58.3 289.78 59.5 289.26 60.58C288.76 61.64 287.98 62.49 286.92 63.13C285.88 63.77 284.58 64.09 283.02 64.09C280.04 64.09 277.98 63.14 276.84 61.24C275.72 59.34 275.16 56.65 275.16 53.17C275.16 45.77 277.7 42.07 282.78 42.07C284.7 42.07 286.21 42.6 287.31 43.66C288.41 44.7 289.06 46.06 289.26 47.74H287.31ZM282.81 51.52C281.87 51.52 280.98 51.71 280.14 52.09C279.3 52.47 278.61 53.05 278.07 53.83C277.55 54.59 277.29 55.53 277.29 56.65C277.29 58.27 277.77 59.62 278.73 60.7C279.69 61.78 281.09 62.32 282.93 62.32C284.47 62.32 285.7 61.85 286.62 60.91C287.54 59.97 288 58.69 288 57.07C288 55.33 287.55 53.97 286.65 52.99C285.75 52.01 284.47 51.52 282.81 51.52ZM294.627 64.15C294.187 64.15 293.817 64 293.517 63.7C293.237 63.4 293.097 63.03 293.097 62.59C293.097 62.15 293.237 61.79 293.517 61.51C293.817 61.21 294.187 61.06 294.627 61.06C295.047 61.06 295.397 61.21 295.677 61.51C295.977 61.79 296.127 62.15 296.127 62.59C296.127 63.03 295.977 63.4 295.677 63.7C295.397 64 295.047 64.15 294.627 64.15ZM302.056 58.27C302.276 59.57 302.776 60.57 303.556 61.27C304.336 61.97 305.406 62.32 306.766 62.32C308.646 62.32 310.036 61.59 310.936 60.13C311.856 58.65 312.276 56.21 312.196 52.81C311.816 53.91 311.086 54.78 310.006 55.42C308.946 56.04 307.726 56.35 306.346 56.35C304.246 56.35 302.556 55.72 301.276 54.46C300.016 53.2 299.386 51.45 299.386 49.21C299.386 47.87 299.646 46.66 300.166 45.58C300.686 44.5 301.476 43.65 302.536 43.03C303.596 42.41 304.896 42.1 306.436 42.1C309.276 42.1 311.256 43.03 312.376 44.89C313.496 46.73 314.056 49.38 314.056 52.84C314.056 56.58 313.496 59.39 312.376 61.27C311.276 63.15 309.376 64.09 306.676 64.09C304.696 64.09 303.156 63.56 302.056 62.5C300.956 61.42 300.306 60.01 300.106 58.27H302.056ZM306.676 54.55C307.616 54.55 308.476 54.36 309.256 53.98C310.056 53.58 310.696 53 311.176 52.24C311.656 51.48 311.896 50.57 311.896 49.51C311.896 47.87 311.426 46.52 310.486 45.46C309.566 44.4 308.236 43.87 306.496 43.87C304.956 43.87 303.716 44.35 302.776 45.31C301.856 46.27 301.396 47.55 301.396 49.15C301.396 50.83 301.856 52.15 302.776 53.11C303.696 54.07 304.996 54.55 306.676 54.55ZM317.086 58.9V57.31L328.006 42.61H330.496V57.07H333.706V58.9H330.496V64H328.426V58.9H317.086ZM328.516 44.92L319.516 57.07H328.516V44.92ZM335.395 44.38V42.49H340.495V64H338.365V44.38H335.395ZM345.175 53.05C345.175 49.61 345.705 46.94 346.765 45.04C347.825 43.14 349.725 42.19 352.465 42.19C355.205 42.19 357.105 43.14 358.165 45.04C359.225 46.94 359.755 49.61 359.755 53.05C359.755 56.55 359.225 59.26 358.165 61.18C357.105 63.1 355.205 64.06 352.465 64.06C349.705 64.06 347.795 63.1 346.735 61.18C345.695 59.26 345.175 56.55 345.175 53.05ZM357.685 53.05C357.685 51.19 357.555 49.62 357.295 48.34C357.035 47.06 356.525 46.03 355.765 45.25C355.005 44.47 353.905 44.08 352.465 44.08C351.025 44.08 349.925 44.47 349.165 45.25C348.405 46.03 347.895 47.06 347.635 48.34C347.375 49.62 347.245 51.19 347.245 53.05C347.245 54.97 347.375 56.58 347.635 57.88C347.895 59.16 348.405 60.19 349.165 60.97C349.925 61.75 351.025 62.14 352.465 62.14C353.905 62.14 355.005 61.75 355.765 60.97C356.525 60.19 357.035 59.16 357.295 57.88C357.555 56.58 357.685 54.97 357.685 53.05Z" fill="white"/>
<path d="M176.334 227.014H205.314V241H158.694V153.052H176.334V227.014ZM225.472 162.88C222.364 162.88 219.76 161.914 217.66 159.982C215.644 157.966 214.636 155.488 214.636 152.548C214.636 149.608 215.644 147.172 217.66 145.24C219.76 143.224 222.364 142.216 225.472 142.216C228.58 142.216 231.142 143.224 233.158 145.24C235.258 147.172 236.308 149.608 236.308 152.548C236.308 155.488 235.258 157.966 233.158 159.982C231.142 161.914 228.58 162.88 225.472 162.88ZM234.166 171.196V241H216.526V171.196H234.166Z" fill="white"/>
<path d="M144.99 343.04H151.71V347H139.86V325.94H144.99V343.04ZM156.737 328.52C155.837 328.52 155.097 328.26 154.517 327.74C153.957 327.2 153.677 326.54 153.677 325.76C153.677 324.96 153.957 324.3 154.517 323.78C155.097 323.24 155.837 322.97 156.737 322.97C157.617 322.97 158.337 323.24 158.897 323.78C159.477 324.3 159.767 324.96 159.767 325.76C159.767 326.54 159.477 327.2 158.897 327.74C158.337 328.26 157.617 328.52 156.737 328.52ZM159.287 330.26V347H154.157V330.26H159.287ZM172.335 342.65V347H169.725C167.865 347 166.415 346.55 165.375 345.65C164.335 344.73 163.815 343.24 163.815 341.18V334.52H161.775V330.26H163.815V326.18H168.945V330.26H172.305V334.52H168.945V341.24C168.945 341.74 169.065 342.1 169.305 342.32C169.545 342.54 169.945 342.65 170.505 342.65H172.335ZM185.482 330.08C187.402 330.08 188.942 330.72 190.102 332C191.262 333.26 191.842 335 191.842 337.22V347H186.742V337.91C186.742 336.79 186.452 335.92 185.872 335.3C185.292 334.68 184.512 334.37 183.532 334.37C182.552 334.37 181.772 334.68 181.192 335.3C180.612 335.92 180.322 336.79 180.322 337.91V347H175.192V324.8H180.322V332.51C180.842 331.77 181.552 331.18 182.452 330.74C183.352 330.3 184.362 330.08 185.482 330.08ZM197.987 328.52C197.087 328.52 196.347 328.26 195.767 327.74C195.207 327.2 194.927 326.54 194.927 325.76C194.927 324.96 195.207 324.3 195.767 323.78C196.347 323.24 197.087 322.97 197.987 322.97C198.867 322.97 199.587 323.24 200.147 323.78C200.727 324.3 201.017 324.96 201.017 325.76C201.017 326.54 200.727 327.2 200.147 327.74C199.587 328.26 198.867 328.52 197.987 328.52ZM200.537 330.26V347H195.407V330.26H200.537ZM220.785 330.26V347H215.655V344.72C215.135 345.46 214.425 346.06 213.525 346.52C212.645 346.96 211.665 347.18 210.585 347.18C209.305 347.18 208.175 346.9 207.195 346.34C206.215 345.76 205.455 344.93 204.915 343.85C204.375 342.77 204.105 341.5 204.105 340.04V330.26H209.205V339.35C209.205 340.47 209.495 341.34 210.075 341.96C210.655 342.58 211.435 342.89 212.415 342.89C213.415 342.89 214.205 342.58 214.785 341.96C215.365 341.34 215.655 340.47 215.655 339.35V330.26H220.785ZM245.829 330.08C247.909 330.08 249.559 330.71 250.779 331.97C252.019 333.23 252.639 334.98 252.639 337.22V347H247.539V337.91C247.539 336.83 247.249 336 246.669 335.42C246.109 334.82 245.329 334.52 244.329 334.52C243.329 334.52 242.539 334.82 241.959 335.42C241.399 336 241.119 336.83 241.119 337.91V347H236.019V337.91C236.019 336.83 235.729 336 235.149 335.42C234.589 334.82 233.809 334.52 232.809 334.52C231.809 334.52 231.019 334.82 230.439 335.42C229.879 336 229.599 336.83 229.599 337.91V347H224.469V330.26H229.599V332.36C230.119 331.66 230.799 331.11 231.639 330.71C232.479 330.29 233.429 330.08 234.489 330.08C235.749 330.08 236.869 330.35 237.849 330.89C238.849 331.43 239.629 332.2 240.189 333.2C240.769 332.28 241.559 331.53 242.559 330.95C243.559 330.37 244.649 330.08 245.829 330.08Z" fill="white"/>
</svg>
