<svg width="20" height="22" viewBox="0 0 20 22" fill="none" xmlns="http://www.w3.org/2000/svg">
<path d="M4 6.9984C4 5.40753 4.63214 3.88181 5.75736 2.75689C6.88258 1.63197 8.4087 1 10 1C11.5913 1 13.1174 1.63197 14.2426 2.75689C15.3679 3.88181 16 5.40753 16 6.9984C16 13.9965 19 15.996 19 15.996H1C1 15.996 4 13.9965 4 6.9984Z" stroke="#080808" stroke-width="2" stroke-linecap="round" stroke-linejoin="round"/>
<path d="M8.2998 19.9946C8.46719 20.2991 8.71325 20.553 9.0123 20.7298C9.31134 20.9067 9.65238 21 9.9998 21C10.3472 21 10.6883 20.9067 10.9873 20.7298C11.2864 20.553 11.5324 20.2991 11.6998 19.9946" stroke="#080808" stroke-width="2" stroke-linecap="round" stroke-linejoin="round"/>
</svg>
