<svg width="394" height="394" viewBox="0 0 394 394" fill="none" xmlns="http://www.w3.org/2000/svg">
<rect x="2.5" y="2.5" width="389" height="389" rx="27.5" fill="#050406" stroke="#B1B98E" stroke-width="5"/>
<path d="M33.976 65.82V58.79L45.3 42.64H54.382V58.524H57.118V65.82H54.382V70H45.87V65.82H33.976ZM46.554 52.254L42.45 58.524H46.554V52.254ZM72.6259 50.658C72.4739 49.898 72.2459 49.3407 71.9419 48.986C71.6632 48.6313 71.2199 48.454 70.6119 48.454C69.6492 48.454 69.0032 48.948 68.6739 49.936C68.3699 50.8987 68.2179 52.406 68.2179 54.458C68.6739 53.7487 69.3325 53.1913 70.1939 52.786C71.0552 52.3807 72.0305 52.178 73.1199 52.178C75.5519 52.178 77.4899 52.9253 78.9339 54.42C80.4032 55.9147 81.1379 58.0807 81.1379 60.918C81.1379 62.818 80.7325 64.4773 79.9219 65.896C79.1365 67.2893 78.0092 68.366 76.5399 69.126C75.0705 69.886 73.3352 70.266 71.3339 70.266C67.3565 70.266 64.5952 69.05 63.0499 66.618C61.5045 64.1607 60.7319 60.728 60.7319 56.32C60.7319 52.8747 61.0865 50.088 61.7959 47.96C62.5052 45.832 63.6199 44.2613 65.1399 43.248C66.6852 42.2347 68.6865 41.728 71.1439 41.728C74.1585 41.728 76.4259 42.5893 77.9459 44.312C79.4912 46.0347 80.3399 48.15 80.4919 50.658H72.6259ZM71.0299 58.638C70.3459 58.638 69.8012 58.828 69.3959 59.208C68.9905 59.588 68.7879 60.12 68.7879 60.804C68.7879 61.564 68.9779 62.134 69.3579 62.514C69.7632 62.8687 70.3205 63.046 71.0299 63.046C71.7392 63.046 72.2839 62.8687 72.6639 62.514C73.0692 62.134 73.2719 61.564 73.2719 60.804C73.2719 60.12 73.0692 59.588 72.6639 59.208C72.2585 58.828 71.7139 58.638 71.0299 58.638Z" fill="white"/>
<path d="M273.93 44.38V42.49H279.03V64H276.9V44.38H273.93ZM283.71 53.05C283.71 49.61 284.24 46.94 285.3 45.04C286.36 43.14 288.26 42.19 291 42.19C293.74 42.19 295.64 43.14 296.7 45.04C297.76 46.94 298.29 49.61 298.29 53.05C298.29 56.55 297.76 59.26 296.7 61.18C295.64 63.1 293.74 64.06 291 64.06C288.24 64.06 286.33 63.1 285.27 61.18C284.23 59.26 283.71 56.55 283.71 53.05ZM296.22 53.05C296.22 51.19 296.09 49.62 295.83 48.34C295.57 47.06 295.06 46.03 294.3 45.25C293.54 44.47 292.44 44.08 291 44.08C289.56 44.08 288.46 44.47 287.7 45.25C286.94 46.03 286.43 47.06 286.17 48.34C285.91 49.62 285.78 51.19 285.78 53.05C285.78 54.97 285.91 56.58 286.17 57.88C286.43 59.16 286.94 60.19 287.7 60.97C288.46 61.75 289.56 62.14 291 62.14C292.44 62.14 293.54 61.75 294.3 60.97C295.06 60.19 295.57 59.16 295.83 57.88C296.09 56.58 296.22 54.97 296.22 53.05ZM314.556 47.74C314.116 45.14 312.606 43.84 310.026 43.84C308.066 43.84 306.596 44.6 305.616 46.12C304.636 47.64 304.186 50.13 304.266 53.59C304.666 52.39 305.426 51.45 306.546 50.77C307.686 50.07 308.986 49.72 310.446 49.72C312.546 49.72 314.206 50.37 315.426 51.67C316.666 52.95 317.286 54.72 317.286 56.98C317.286 58.3 317.026 59.5 316.506 60.58C316.006 61.64 315.226 62.49 314.166 63.13C313.126 63.77 311.826 64.09 310.266 64.09C307.286 64.09 305.226 63.14 304.086 61.24C302.966 59.34 302.406 56.65 302.406 53.17C302.406 45.77 304.946 42.07 310.026 42.07C311.946 42.07 313.456 42.6 314.556 43.66C315.656 44.7 316.306 46.06 316.506 47.74H314.556ZM310.056 51.52C309.116 51.52 308.226 51.71 307.386 52.09C306.546 52.47 305.856 53.05 305.316 53.83C304.796 54.59 304.536 55.53 304.536 56.65C304.536 58.27 305.016 59.62 305.976 60.7C306.936 61.78 308.336 62.32 310.176 62.32C311.716 62.32 312.946 61.85 313.866 60.91C314.786 59.97 315.246 58.69 315.246 57.07C315.246 55.33 314.796 53.97 313.896 52.99C312.996 52.01 311.716 51.52 310.056 51.52ZM321.873 64.15C321.433 64.15 321.063 64 320.763 63.7C320.483 63.4 320.343 63.03 320.343 62.59C320.343 62.15 320.483 61.79 320.763 61.51C321.063 61.21 321.433 61.06 321.873 61.06C322.293 61.06 322.643 61.21 322.923 61.51C323.223 61.79 323.373 62.15 323.373 62.59C323.373 63.03 323.223 63.4 322.923 63.7C322.643 64 322.293 64.15 321.873 64.15ZM325.583 58.9V57.31L336.503 42.61H338.993V57.07H342.202V58.9H338.993V64H336.923V58.9H325.583ZM337.013 44.92L328.013 57.07H337.013V44.92ZM344.491 62.35C348.171 59.59 351.011 57.12 353.011 54.94C355.031 52.74 356.041 50.59 356.041 48.49C356.041 47.11 355.691 46.01 354.991 45.19C354.311 44.35 353.191 43.93 351.631 43.93C350.111 43.93 348.931 44.41 348.091 45.37C347.271 46.31 346.811 47.57 346.711 49.15H344.671C344.791 46.93 345.471 45.21 346.711 43.99C347.971 42.75 349.611 42.13 351.631 42.13C353.571 42.13 355.141 42.68 356.341 43.78C357.541 44.86 358.141 46.4 358.141 48.4C358.141 50.82 357.131 53.17 355.111 55.45C353.111 57.71 350.641 59.92 347.701 62.08H358.801V63.85H344.491V62.35Z" fill="white"/>
<path d="M187.828 180.268C187.828 184.972 186.694 189.382 184.426 193.498C182.242 197.614 178.756 200.932 173.968 203.452C169.264 205.972 163.3 207.232 156.076 207.232H141.334V241H123.694V153.052H156.076C162.88 153.052 168.676 154.228 173.464 156.58C178.252 158.932 181.822 162.166 184.174 166.282C186.61 170.398 187.828 175.06 187.828 180.268ZM155.32 192.994C160.192 192.994 163.804 191.902 166.156 189.718C168.508 187.45 169.684 184.3 169.684 180.268C169.684 171.7 164.896 167.416 155.32 167.416H141.334V192.994H155.32ZM195.816 205.846C195.816 198.79 197.202 192.532 199.974 187.072C202.83 181.612 206.694 177.412 211.566 174.472C216.438 171.532 221.856 170.062 227.82 170.062C232.356 170.062 236.682 171.07 240.798 173.086C244.914 175.018 248.19 177.622 250.626 180.898V147.76H268.518V241H250.626V230.668C248.442 234.112 245.376 236.884 241.428 238.984C237.48 241.084 232.902 242.134 227.694 242.134C221.814 242.134 216.438 240.622 211.566 237.598C206.694 234.574 202.83 230.332 199.974 224.872C197.202 219.328 195.816 212.986 195.816 205.846ZM250.752 206.098C250.752 201.814 249.912 198.16 248.232 195.136C246.552 192.028 244.284 189.676 241.428 188.08C238.572 186.4 235.506 185.56 232.23 185.56C228.954 185.56 225.93 186.358 223.158 187.954C220.386 189.55 218.118 191.902 216.354 195.01C214.674 198.034 213.834 201.646 213.834 205.846C213.834 210.046 214.674 213.742 216.354 216.934C218.118 220.042 220.386 222.436 223.158 224.116C226.014 225.796 229.038 226.636 232.23 226.636C235.506 226.636 238.572 225.838 241.428 224.242C244.284 222.562 246.552 220.21 248.232 217.186C249.912 214.078 250.752 210.382 250.752 206.098Z" fill="white"/>
<path d="M134.91 332.72C134.91 333.94 134.63 335.06 134.07 336.08C133.51 337.08 132.65 337.89 131.49 338.51C130.33 339.13 128.89 339.44 127.17 339.44H123.99V347H118.86V325.94H127.17C128.85 325.94 130.27 326.23 131.43 326.81C132.59 327.39 133.46 328.19 134.04 329.21C134.62 330.23 134.91 331.4 134.91 332.72ZM126.78 335.36C127.76 335.36 128.49 335.13 128.97 334.67C129.45 334.21 129.69 333.56 129.69 332.72C129.69 331.88 129.45 331.23 128.97 330.77C128.49 330.31 127.76 330.08 126.78 330.08H123.99V335.36H126.78ZM136.561 338.6C136.561 336.88 136.881 335.37 137.521 334.07C138.181 332.77 139.071 331.77 140.191 331.07C141.311 330.37 142.561 330.02 143.941 330.02C145.121 330.02 146.151 330.26 147.031 330.74C147.931 331.22 148.621 331.85 149.101 332.63V330.26H154.231V347H149.101V344.63C148.601 345.41 147.901 346.04 147.001 346.52C146.121 347 145.091 347.24 143.911 347.24C142.551 347.24 141.311 346.89 140.191 346.19C139.071 345.47 138.181 344.46 137.521 343.16C136.881 341.84 136.561 340.32 136.561 338.6ZM149.101 338.63C149.101 337.35 148.741 336.34 148.021 335.6C147.321 334.86 146.461 334.49 145.441 334.49C144.421 334.49 143.551 334.86 142.831 335.6C142.131 336.32 141.781 337.32 141.781 338.6C141.781 339.88 142.131 340.9 142.831 341.66C143.551 342.4 144.421 342.77 145.441 342.77C146.461 342.77 147.321 342.4 148.021 341.66C148.741 340.92 149.101 339.91 149.101 338.63ZM163.072 324.8V347H157.942V324.8H163.072ZM171.92 324.8V347H166.79V324.8H171.92ZM174.617 338.6C174.617 336.88 174.937 335.37 175.577 334.07C176.237 332.77 177.127 331.77 178.247 331.07C179.367 330.37 180.617 330.02 181.997 330.02C183.177 330.02 184.207 330.26 185.087 330.74C185.987 331.22 186.677 331.85 187.157 332.63V330.26H192.287V347H187.157V344.63C186.657 345.41 185.957 346.04 185.057 346.52C184.177 347 183.147 347.24 181.967 347.24C180.607 347.24 179.367 346.89 178.247 346.19C177.127 345.47 176.237 344.46 175.577 343.16C174.937 341.84 174.617 340.32 174.617 338.6ZM187.157 338.63C187.157 337.35 186.797 336.34 186.077 335.6C185.377 334.86 184.517 334.49 183.497 334.49C182.477 334.49 181.607 334.86 180.887 335.6C180.187 336.32 179.837 337.32 179.837 338.6C179.837 339.88 180.187 340.9 180.887 341.66C181.607 342.4 182.477 342.77 183.497 342.77C184.517 342.77 185.377 342.4 186.077 341.66C186.797 340.92 187.157 339.91 187.157 338.63ZM194.979 338.6C194.979 336.88 195.299 335.37 195.939 334.07C196.599 332.77 197.489 331.77 198.609 331.07C199.729 330.37 200.979 330.02 202.359 330.02C203.459 330.02 204.459 330.25 205.359 330.71C206.279 331.17 206.999 331.79 207.519 332.57V324.8H212.649V347H207.519V344.6C207.039 345.4 206.349 346.04 205.449 346.52C204.569 347 203.539 347.24 202.359 347.24C200.979 347.24 199.729 346.89 198.609 346.19C197.489 345.47 196.599 344.46 195.939 343.16C195.299 341.84 194.979 340.32 194.979 338.6ZM207.519 338.63C207.519 337.35 207.159 336.34 206.439 335.6C205.739 334.86 204.879 334.49 203.859 334.49C202.839 334.49 201.969 334.86 201.249 335.6C200.549 336.32 200.199 337.32 200.199 338.6C200.199 339.88 200.549 340.9 201.249 341.66C201.969 342.4 202.839 342.77 203.859 342.77C204.879 342.77 205.739 342.4 206.439 341.66C207.159 340.92 207.519 339.91 207.519 338.63ZM218.94 328.52C218.04 328.52 217.3 328.26 216.72 327.74C216.16 327.2 215.88 326.54 215.88 325.76C215.88 324.96 216.16 324.3 216.72 323.78C217.3 323.24 218.04 322.97 218.94 322.97C219.82 322.97 220.54 323.24 221.1 323.78C221.68 324.3 221.97 324.96 221.97 325.76C221.97 326.54 221.68 327.2 221.1 327.74C220.54 328.26 219.82 328.52 218.94 328.52ZM221.49 330.26V347H216.36V330.26H221.49ZM241.738 330.26V347H236.608V344.72C236.088 345.46 235.378 346.06 234.478 346.52C233.598 346.96 232.618 347.18 231.538 347.18C230.258 347.18 229.128 346.9 228.148 346.34C227.168 345.76 226.408 344.93 225.868 343.85C225.328 342.77 225.058 341.5 225.058 340.04V330.26H230.158V339.35C230.158 340.47 230.448 341.34 231.028 341.96C231.608 342.58 232.388 342.89 233.368 342.89C234.368 342.89 235.158 342.58 235.738 341.96C236.318 341.34 236.608 340.47 236.608 339.35V330.26H241.738ZM266.783 330.08C268.863 330.08 270.513 330.71 271.733 331.97C272.973 333.23 273.593 334.98 273.593 337.22V347H268.493V337.91C268.493 336.83 268.203 336 267.623 335.42C267.063 334.82 266.283 334.52 265.283 334.52C264.283 334.52 263.493 334.82 262.913 335.42C262.353 336 262.073 336.83 262.073 337.91V347H256.973V337.91C256.973 336.83 256.683 336 256.103 335.42C255.543 334.82 254.763 334.52 253.763 334.52C252.763 334.52 251.973 334.82 251.393 335.42C250.833 336 250.553 336.83 250.553 337.91V347H245.423V330.26H250.553V332.36C251.073 331.66 251.753 331.11 252.593 330.71C253.433 330.29 254.383 330.08 255.443 330.08C256.703 330.08 257.823 330.35 258.803 330.89C259.803 331.43 260.583 332.2 261.143 333.2C261.723 332.28 262.513 331.53 263.513 330.95C264.513 330.37 265.603 330.08 266.783 330.08Z" fill="white"/>
</svg>
