<svg width="20" height="22" viewBox="0 0 20 22" fill="none" xmlns="http://www.w3.org/2000/svg">
<path d="M10.2196 1H9.78043C9.25103 1 8.74331 1.21071 8.36897 1.58579C7.99463 1.96086 7.78433 2.46957 7.78433 3V3.18C7.78397 3.53073 7.69157 3.87519 7.51639 4.17884C7.34121 4.48248 7.08942 4.73464 6.78628 4.91L6.35712 5.16C6.05367 5.33554 5.70945 5.42795 5.35907 5.42795C5.00868 5.42795 4.66446 5.33554 4.36101 5.16L4.21131 5.08C3.75327 4.81526 3.2091 4.74344 2.69826 4.88031C2.18743 5.01717 1.75166 5.35154 1.48663 5.81L1.26706 6.19C1.00284 6.64893 0.931158 7.19416 1.06776 7.706C1.20435 8.21783 1.53806 8.65445 1.99564 8.92L2.14534 9.02C2.44703 9.19451 2.69788 9.44509 2.87297 9.74683C3.04806 10.0486 3.14129 10.391 3.14339 10.74V11.25C3.14479 11.6024 3.05322 11.949 2.87796 12.2545C2.70269 12.5601 2.44996 12.8138 2.14534 12.99L1.99564 13.08C1.53806 13.3456 1.20435 13.7822 1.06776 14.294C0.931158 14.8058 1.00284 15.3511 1.26706 15.81L1.48663 16.19C1.75166 16.6485 2.18743 16.9828 2.69826 17.1197C3.2091 17.2566 3.75327 17.1847 4.21131 16.92L4.36101 16.84C4.66446 16.6645 5.00868 16.5721 5.35907 16.5721C5.70945 16.5721 6.05367 16.6645 6.35712 16.84L6.78628 17.09C7.08942 17.2654 7.34121 17.5175 7.51639 17.8212C7.69157 18.1248 7.78397 18.4693 7.78433 18.82V19C7.78433 19.5304 7.99463 20.0391 8.36897 20.4142C8.74331 20.7893 9.25103 21 9.78043 21H10.2196C10.749 21 11.2567 20.7893 11.631 20.4142C12.0054 20.0391 12.2157 19.5304 12.2157 19V18.82C12.216 18.4693 12.3084 18.1248 12.4836 17.8212C12.6588 17.5175 12.9106 17.2654 13.2137 17.09L13.6429 16.84C13.9463 16.6645 14.2905 16.5721 14.6409 16.5721C14.9913 16.5721 15.3355 16.6645 15.639 16.84L15.7887 16.92C16.2467 17.1847 16.7909 17.2566 17.3017 17.1197C17.8126 16.9828 18.2483 16.6485 18.5134 16.19L18.7329 15.8C18.9972 15.3411 19.0688 14.7958 18.9322 14.284C18.7956 13.7722 18.4619 13.3356 18.0044 13.07L17.8547 12.99C17.55 12.8138 17.2973 12.5601 17.122 12.2545C16.9468 11.949 16.8552 11.6024 16.8566 11.25V10.75C16.8552 10.3976 16.9468 10.051 17.122 9.74549C17.2973 9.43994 17.55 9.18621 17.8547 9.01L18.0044 8.92C18.4619 8.65445 18.7956 8.21783 18.9322 7.706C19.0688 7.19416 18.9972 6.64893 18.7329 6.19L18.5134 5.81C18.2483 5.35154 17.8126 5.01717 17.3017 4.88031C16.7909 4.74344 16.2467 4.81526 15.7887 5.08L15.639 5.16C15.3355 5.33554 14.9913 5.42795 14.6409 5.42795C14.2905 5.42795 13.9463 5.33554 13.6429 5.16L13.2137 4.91C12.9106 4.73464 12.6588 4.48248 12.4836 4.17884C12.3084 3.87519 12.216 3.53073 12.2157 3.18V3C12.2157 2.46957 12.0054 1.96086 11.631 1.58579C11.2567 1.21071 10.749 1 10.2196 1Z" stroke="#080808" stroke-width="2" stroke-linecap="round" stroke-linejoin="round"/>
<path d="M10.0003 14C11.6539 14 12.9944 12.6569 12.9944 11C12.9944 9.34315 11.6539 8 10.0003 8C8.34663 8 7.0061 9.34315 7.0061 11C7.0061 12.6569 8.34663 14 10.0003 14Z" stroke="#080808" stroke-width="2" stroke-linecap="round" stroke-linejoin="round"/>
</svg>
