<svg width="22" height="21" viewBox="0 0 22 21" fill="none" xmlns="http://www.w3.org/2000/svg">
<path d="M11.821 1.17142C11.5607 1.05846 11.2779 1 10.9917 1C10.7056 1 10.4228 1.05846 10.1624 1.17142L1.59947 4.87814C1.42217 4.95251 1.27142 5.07431 1.16559 5.22872C1.05976 5.38312 1.00342 5.56347 1.00342 5.74779C1.00342 5.93212 1.05976 6.11246 1.16559 6.26687C1.27142 6.42128 1.42217 6.54308 1.59947 6.61745L10.1724 10.3337C10.4327 10.4466 10.7156 10.5051 11.0017 10.5051C11.2879 10.5051 11.5707 10.4466 11.831 10.3337L20.4039 6.62695C20.5813 6.55259 20.732 6.43078 20.8378 6.27637C20.9437 6.12197 21 5.94162 21 5.7573C21 5.57297 20.9437 5.39263 20.8378 5.23822C20.732 5.08381 20.5813 4.96201 20.4039 4.88764L11.821 1.17142Z" stroke="#080808" stroke-width="2" stroke-linecap="round" stroke-linejoin="round"/>
<path d="M20.9835 15.875L11.8211 19.8288C11.5607 19.9418 11.2779 20.0003 10.9918 20.0003C10.7056 20.0003 10.4228 19.9418 10.1624 19.8288L1 15.875" stroke="#080808" stroke-width="2" stroke-linecap="round" stroke-linejoin="round"/>
<path d="M20.9835 11.1226L11.8211 15.0764C11.5607 15.1894 11.2779 15.2478 10.9918 15.2478C10.7056 15.2478 10.4228 15.1894 10.1624 15.0764L1 11.1226" stroke="#080808" stroke-width="2" stroke-linecap="round" stroke-linejoin="round"/>
</svg>
