<svg width="25" height="24" viewBox="0 0 25 24" fill="none" xmlns="http://www.w3.org/2000/svg">
<mask id="mask0_157_1945" style="mask-type:alpha" maskUnits="userSpaceOnUse" x="0" y="0" width="25" height="24">
<rect x="0.333008" width="24" height="24" fill="#D9D9D9"/>
</mask>
<g mask="url(#mask0_157_1945)">
<path d="M11.333 20V11.85L8.73301 14.45L7.33301 13L12.333 8L17.333 13L15.933 14.45L13.333 11.85V20H11.333ZM4.33301 9V6C4.33301 5.45 4.52884 4.97917 4.92051 4.5875C5.31217 4.19583 5.78301 4 6.33301 4H18.333C18.883 4 19.3538 4.19583 19.7455 4.5875C20.1372 4.97917 20.333 5.45 20.333 6V9H18.333V6H6.33301V9H4.33301Z" fill="#080808"/>
</g>
</svg>
