<svg width="394" height="394" viewBox="0 0 394 394" fill="none" xmlns="http://www.w3.org/2000/svg">
<rect x="2.5" y="2.5" width="389" height="389" rx="27.5" fill="#3C1123" stroke="#B1B98E" stroke-width="5"/>
<path d="M54.192 49.632H43.172V52.824C43.6533 52.3933 44.274 52.0513 45.034 51.798C45.8193 51.5447 46.6933 51.418 47.656 51.418C49.3787 51.418 50.8353 51.8233 52.026 52.634C53.2167 53.4447 54.1033 54.534 54.686 55.902C55.2687 57.2447 55.56 58.7393 55.56 60.386C55.56 63.426 54.6987 65.7947 52.976 67.492C51.2787 69.164 48.9353 70 45.946 70C43.7673 70 41.88 69.62 40.284 68.86C38.7133 68.1 37.51 67.0487 36.674 65.706C35.8633 64.3633 35.4833 62.8307 35.534 61.108H43.742C43.742 61.5133 43.8813 61.8933 44.16 62.248C44.4387 62.6027 44.8947 62.78 45.528 62.78C46.1613 62.78 46.63 62.552 46.934 62.096C47.238 61.64 47.39 61.0193 47.39 60.234C47.39 59.4993 47.2127 58.942 46.858 58.562C46.5287 58.182 46.0473 57.992 45.414 57.992C44.882 57.992 44.4767 58.1187 44.198 58.372C43.9193 58.6253 43.78 58.9167 43.78 59.246H35.572V42.222H54.192V49.632ZM59.0619 65.82V58.79L70.3859 42.64H79.4679V58.524H82.2039V65.82H79.4679V70H70.9559V65.82H59.0619ZM71.6399 52.254L67.5359 58.524H71.6399V52.254Z" fill="white"/>
<path d="M273.93 44.38V42.49H279.03V64H276.9V44.38H273.93ZM283.62 47.98C283.76 46.16 284.46 44.73 285.72 43.69C287 42.63 288.65 42.1 290.67 42.1C292.01 42.1 293.16 42.34 294.12 42.82C295.08 43.3 295.8 43.96 296.28 44.8C296.78 45.62 297.03 46.55 297.03 47.59C297.03 48.85 296.66 49.94 295.92 50.86C295.18 51.78 294.13 52.35 292.77 52.57V52.72C294.19 53 295.32 53.62 296.16 54.58C297 55.52 297.42 56.76 297.42 58.3C297.42 60.02 296.84 61.43 295.68 62.53C294.54 63.61 292.88 64.15 290.7 64.15C288.62 64.15 286.91 63.61 285.57 62.53C284.23 61.43 283.46 59.88 283.26 57.88H285.3C285.48 59.22 286.04 60.31 286.98 61.15C287.92 61.97 289.16 62.38 290.7 62.38C292.22 62.38 293.38 61.98 294.18 61.18C295 60.38 295.41 59.36 295.41 58.12C295.41 55.08 293.22 53.56 288.84 53.56H288.18V51.79H288.87C292.95 51.79 294.99 50.46 294.99 47.8C294.99 46.64 294.61 45.71 293.85 45.01C293.09 44.29 292.01 43.93 290.61 43.93C289.25 43.93 288.12 44.29 287.22 45.01C286.34 45.71 285.82 46.7 285.66 47.98H283.62ZM300.239 44.38V42.49H305.339V64H303.209V44.38H300.239ZM310.828 64.15C310.388 64.15 310.018 64 309.718 63.7C309.438 63.4 309.298 63.03 309.298 62.59C309.298 62.15 309.438 61.79 309.718 61.51C310.018 61.21 310.388 61.06 310.828 61.06C311.248 61.06 311.598 61.21 311.878 61.51C312.178 61.79 312.328 62.15 312.328 62.59C312.328 63.03 312.178 63.4 311.878 63.7C311.598 64 311.248 64.15 310.828 64.15ZM315.048 62.35C318.728 59.59 321.568 57.12 323.568 54.94C325.588 52.74 326.598 50.59 326.598 48.49C326.598 47.11 326.248 46.01 325.548 45.19C324.868 44.35 323.748 43.93 322.188 43.93C320.668 43.93 319.488 44.41 318.648 45.37C317.828 46.31 317.368 47.57 317.268 49.15H315.228C315.348 46.93 316.028 45.21 317.268 43.99C318.528 42.75 320.168 42.13 322.188 42.13C324.128 42.13 325.698 42.68 326.898 43.78C328.098 44.86 328.698 46.4 328.698 48.4C328.698 50.82 327.688 53.17 325.668 55.45C323.668 57.71 321.198 59.92 318.258 62.08H329.358V63.85H315.048V62.35ZM335.426 58.27C335.646 59.57 336.146 60.57 336.926 61.27C337.706 61.97 338.776 62.32 340.136 62.32C342.016 62.32 343.406 61.59 344.306 60.13C345.226 58.65 345.646 56.21 345.566 52.81C345.186 53.91 344.456 54.78 343.376 55.42C342.316 56.04 341.096 56.35 339.716 56.35C337.616 56.35 335.926 55.72 334.646 54.46C333.386 53.2 332.756 51.45 332.756 49.21C332.756 47.87 333.016 46.66 333.536 45.58C334.056 44.5 334.846 43.65 335.906 43.03C336.966 42.41 338.266 42.1 339.806 42.1C342.646 42.1 344.626 43.03 345.746 44.89C346.866 46.73 347.426 49.38 347.426 52.84C347.426 56.58 346.866 59.39 345.746 61.27C344.646 63.15 342.746 64.09 340.046 64.09C338.066 64.09 336.526 63.56 335.426 62.5C334.326 61.42 333.676 60.01 333.476 58.27H335.426ZM340.046 54.55C340.986 54.55 341.846 54.36 342.626 53.98C343.426 53.58 344.066 53 344.546 52.24C345.026 51.48 345.266 50.57 345.266 49.51C345.266 47.87 344.796 46.52 343.856 45.46C342.936 44.4 341.606 43.87 339.866 43.87C338.326 43.87 337.086 44.35 336.146 45.31C335.226 46.27 334.766 47.55 334.766 49.15C334.766 50.83 335.226 52.15 336.146 53.11C337.066 54.07 338.366 54.55 340.046 54.55Z" fill="white"/>
<path d="M175.362 241L156.336 211.39L139.074 241H119.166L146.886 196.648L118.788 153.052H139.074L158.1 182.536L175.236 153.052H195.144L167.55 197.278L195.648 241H175.362ZM273.963 204.586C273.963 207.106 273.795 209.374 273.459 211.39H222.429C222.849 216.43 224.613 220.378 227.721 223.234C230.829 226.09 234.651 227.518 239.187 227.518C245.739 227.518 250.401 224.704 253.173 219.076H272.199C270.183 225.796 266.319 231.34 260.607 235.708C254.895 239.992 247.881 242.134 239.565 242.134C232.845 242.134 226.797 240.664 221.421 237.724C216.129 234.7 211.971 230.458 208.947 224.998C206.007 219.538 204.537 213.238 204.537 206.098C204.537 198.874 206.007 192.532 208.947 187.072C211.887 181.612 216.003 177.412 221.295 174.472C226.587 171.532 232.677 170.062 239.565 170.062C246.201 170.062 252.123 171.49 257.331 174.346C262.623 177.202 266.697 181.276 269.553 186.568C272.493 191.776 273.963 197.782 273.963 204.586ZM255.693 199.546C255.609 195.01 253.971 191.398 250.779 188.71C247.587 185.938 243.681 184.552 239.061 184.552C234.693 184.552 230.997 185.896 227.973 188.584C225.033 191.188 223.227 194.842 222.555 199.546H255.693Z" fill="white"/>
<path d="M161.76 347L157.47 340.55L153.69 347H147.87L154.62 336.29L147.72 325.94H153.69L157.92 332.3L161.64 325.94H167.46L160.77 336.56L167.73 347H161.76ZM186.085 338.36C186.085 338.84 186.055 339.34 185.995 339.86H174.385C174.465 340.9 174.795 341.7 175.375 342.26C175.975 342.8 176.705 343.07 177.565 343.07C178.845 343.07 179.735 342.53 180.235 341.45H185.695C185.415 342.55 184.905 343.54 184.165 344.42C183.445 345.3 182.535 345.99 181.435 346.49C180.335 346.99 179.105 347.24 177.745 347.24C176.105 347.24 174.645 346.89 173.365 346.19C172.085 345.49 171.085 344.49 170.365 343.19C169.645 341.89 169.285 340.37 169.285 338.63C169.285 336.89 169.635 335.37 170.335 334.07C171.055 332.77 172.055 331.77 173.335 331.07C174.615 330.37 176.085 330.02 177.745 330.02C179.365 330.02 180.805 330.36 182.065 331.04C183.325 331.72 184.305 332.69 185.005 333.95C185.725 335.21 186.085 336.68 186.085 338.36ZM180.835 337.01C180.835 336.13 180.535 335.43 179.935 334.91C179.335 334.39 178.585 334.13 177.685 334.13C176.825 334.13 176.095 334.38 175.495 334.88C174.915 335.38 174.555 336.09 174.415 337.01H180.835ZM198.992 330.08C200.952 330.08 202.512 330.72 203.672 332C204.852 333.26 205.442 335 205.442 337.22V347H200.342V337.91C200.342 336.79 200.052 335.92 199.472 335.3C198.892 334.68 198.112 334.37 197.132 334.37C196.152 334.37 195.372 334.68 194.792 335.3C194.212 335.92 193.922 336.79 193.922 337.91V347H188.792V330.26H193.922V332.48C194.442 331.74 195.142 331.16 196.022 330.74C196.902 330.3 197.892 330.08 198.992 330.08ZM216.626 347.24C214.986 347.24 213.506 346.89 212.186 346.19C210.886 345.49 209.856 344.49 209.096 343.19C208.356 341.89 207.986 340.37 207.986 338.63C207.986 336.91 208.366 335.4 209.126 334.1C209.886 332.78 210.926 331.77 212.246 331.07C213.566 330.37 215.046 330.02 216.686 330.02C218.326 330.02 219.806 330.37 221.126 331.07C222.446 331.77 223.486 332.78 224.246 334.1C225.006 335.4 225.386 336.91 225.386 338.63C225.386 340.35 224.996 341.87 224.216 343.19C223.456 344.49 222.406 345.49 221.066 346.19C219.746 346.89 218.266 347.24 216.626 347.24ZM216.626 342.8C217.606 342.8 218.436 342.44 219.116 341.72C219.816 341 220.166 339.97 220.166 338.63C220.166 337.29 219.826 336.26 219.146 335.54C218.486 334.82 217.666 334.46 216.686 334.46C215.686 334.46 214.856 334.82 214.196 335.54C213.536 336.24 213.206 337.27 213.206 338.63C213.206 339.97 213.526 341 214.166 341.72C214.826 342.44 215.646 342.8 216.626 342.8ZM238.308 330.08C240.268 330.08 241.828 330.72 242.988 332C244.168 333.26 244.758 335 244.758 337.22V347H239.658V337.91C239.658 336.79 239.368 335.92 238.788 335.3C238.208 334.68 237.428 334.37 236.448 334.37C235.468 334.37 234.688 334.68 234.108 335.3C233.528 335.92 233.238 336.79 233.238 337.91V347H228.108V330.26H233.238V332.48C233.758 331.74 234.458 331.16 235.338 330.74C236.218 330.3 237.208 330.08 238.308 330.08Z" fill="white"/>
</svg>
