<svg width="71" height="74" viewBox="0 0 71 74" fill="none" xmlns="http://www.w3.org/2000/svg">
<path d="M47.8858 38.559C47.8858 48.3137 46.4618 57.1295 44.1706 63.494C43.0244 66.6777 41.668 69.2292 40.1795 70.978C38.6899 72.7282 37.1018 73.6378 35.4842 73.6378C33.8665 73.6378 32.2785 72.7282 30.7888 70.978C29.3004 69.2292 27.9439 66.6777 26.7978 63.494C24.5066 57.1295 23.0826 48.3137 23.0826 38.559C23.0826 28.8044 24.5066 19.9886 26.7978 13.6241C27.9439 10.4404 29.3004 7.88894 30.7888 6.14014C32.2785 4.38993 33.8665 3.48031 35.4842 3.48031C37.1018 3.48031 38.6899 4.38993 40.1795 6.14014C41.668 7.88894 43.0244 10.4404 44.1706 13.6241C46.4618 19.9886 47.8858 28.8044 47.8858 38.559Z" stroke="#FFFFE3" stroke-width="0.708661"/>
<path d="M35.4842 26.1575C45.2389 26.1575 54.0547 27.5814 60.4192 29.8726C63.6029 31.0188 66.1543 32.3752 67.9031 33.8637C69.6533 35.3534 70.563 36.9414 70.563 38.559C70.563 40.1767 69.6533 41.7647 67.9031 43.2544C66.1543 44.7428 63.6029 46.0993 60.4192 47.2454C54.0547 49.5366 45.2389 50.9606 35.4842 50.9606C25.7295 50.9606 16.9137 49.5366 10.5493 47.2454C7.36554 46.0993 4.81411 44.7428 3.06531 43.2544C1.3151 41.7647 0.405478 40.1767 0.405478 38.559C0.405478 36.9414 1.3151 35.3534 3.06531 33.8637C4.81411 32.3752 7.36554 31.0188 10.5493 29.8726C16.9137 27.5814 25.7295 26.1575 35.4842 26.1575Z" stroke="#FFFFE3" stroke-width="0.708661"/>
<circle cx="35.4843" cy="3.12598" r="2.48031" fill="#FFFFE3" stroke="#FFFFE3" stroke-width="0.708661"/>
<circle cx="35.4843" cy="50.6062" r="2.48031" fill="#FFFFE3" stroke="#FFFFE3" stroke-width="0.708661"/>
<g filter="url(#filter0_d_180_126)">
<circle cx="35.4843" cy="38.5591" r="6.37795" fill="#FFFFE3"/>
<circle cx="35.4843" cy="38.5591" r="6.37795" stroke="#FFFFE3" stroke-width="0.708661"/>
</g>
<path d="M44.2535 47.3284C37.3559 54.226 30.1153 59.4528 23.9948 62.333C20.9331 63.7738 18.1698 64.6188 15.8807 64.8029C13.5898 64.9871 11.8237 64.5074 10.6798 63.3635C9.53597 62.2197 9.05626 60.4536 9.24049 58.1626C9.42458 55.8736 10.2696 53.1103 11.7103 50.0486C14.5906 43.9281 19.8174 36.6875 26.715 29.7899C33.6126 22.8923 40.8532 17.6655 46.9737 14.7852C50.0354 13.3445 52.7987 12.4995 55.0877 12.3154C57.3787 12.1312 59.1448 12.6109 60.2886 13.7547C61.4325 14.8986 61.9122 16.6647 61.728 18.9556C61.5439 21.2447 60.6989 24.008 59.2581 27.0697C56.3779 33.1901 51.1511 40.4308 44.2535 47.3284Z" stroke="#FFFFE3" stroke-width="0.708661"/>
<path d="M44.2534 29.7899C51.151 36.6875 56.3778 43.9281 59.2581 50.0486C60.6989 53.1102 61.5438 55.8735 61.7279 58.1626C61.9121 60.4536 61.4324 62.2197 60.2886 63.3635C59.1447 64.5074 57.3786 64.9871 55.0877 64.8028C52.7986 64.6188 50.0353 63.7738 46.9736 62.333C40.8532 59.4528 33.6125 54.226 26.7149 47.3283C19.8173 40.4307 14.5905 33.1901 11.7103 27.0696C10.2695 24.008 9.42452 21.2447 9.24044 18.9556C9.0562 16.6646 9.53592 14.8985 10.6798 13.7547C11.8236 12.6108 13.5897 12.1311 15.8807 12.3154C18.1697 12.4994 20.933 13.3444 23.9947 14.7852C30.1152 17.6654 37.3558 22.8923 44.2534 29.7899Z" stroke="#FFFFE3" stroke-width="0.708661"/>
<circle cx="60.2874" cy="52.0237" r="2.48031" fill="#FFFFE3" stroke="#FFFFE3" stroke-width="0.708661"/>
<circle cx="10.681" cy="52.0237" r="2.48031" fill="#FFFFE3" stroke="#FFFFE3" stroke-width="0.708661"/>
<defs>
<filter id="filter0_d_180_126" x="22.9409" y="26.0159" width="25.0866" height="25.0866" filterUnits="userSpaceOnUse" color-interpolation-filters="sRGB">
<feFlood flood-opacity="0" result="BackgroundImageFix"/>
<feColorMatrix in="SourceAlpha" type="matrix" values="0 0 0 0 0 0 0 0 0 0 0 0 0 0 0 0 0 0 127 0" result="hardAlpha"/>
<feMorphology radius="2.12598" operator="dilate" in="SourceAlpha" result="effect1_dropShadow_180_126"/>
<feOffset/>
<feGaussianBlur stdDeviation="1.84252"/>
<feComposite in2="hardAlpha" operator="out"/>
<feColorMatrix type="matrix" values="0 0 0 0 1 0 0 0 0 1 0 0 0 0 1 0 0 0 0.25 0"/>
<feBlend mode="normal" in2="BackgroundImageFix" result="effect1_dropShadow_180_126"/>
<feBlend mode="normal" in="SourceGraphic" in2="effect1_dropShadow_180_126" result="shape"/>
</filter>
</defs>
</svg>
