<svg width="104" height="106" viewBox="0 0 104 106" fill="none" xmlns="http://www.w3.org/2000/svg">
<path d="M69.8415 55.5142C69.8415 69.3789 67.7562 81.892 64.4133 90.9073C62.7406 95.4183 60.7699 99.0075 58.6261 101.453C56.4808 103.9 54.2394 105.121 52.0003 105.121C49.7611 105.121 47.5197 103.9 45.3744 101.453C43.2306 99.0075 41.2599 95.4183 39.5872 90.9073C36.2444 81.892 34.1591 69.3789 34.1591 55.5142C34.1591 41.6496 36.2444 29.1364 39.5872 20.1212C41.2599 15.6102 43.2306 12.021 45.3744 9.57554C47.5197 7.12845 49.7611 5.90763 52.0003 5.90763C54.2394 5.90763 56.4808 7.12845 58.6261 9.57554C60.7699 12.021 62.7406 15.6102 64.4133 20.1212C67.7562 29.1364 69.8415 41.6496 69.8415 55.5142Z" stroke="black" stroke-width="1.75764"/>
<path d="M52 38.2188C66.2876 38.2188 79.1851 40.2442 88.4796 43.4928C93.1309 45.1185 96.8324 47.0342 99.3538 49.1177C101.881 51.206 103.121 53.3722 103.121 55.5147C103.121 57.6572 101.881 59.8234 99.3538 61.9117C96.8324 63.9952 93.1309 65.9109 88.4796 67.5366C79.1851 70.7851 66.2876 72.8106 52 72.8106C37.7124 72.8106 24.8149 70.7851 15.5204 67.5366C10.8691 65.9109 7.16764 63.9952 4.64623 61.9117C2.11911 59.8234 0.878821 57.6572 0.878821 55.5147C0.878821 53.3722 2.11911 51.206 4.64623 49.1177C7.16764 47.0342 10.8691 45.1185 15.5204 43.4928C24.8149 40.2442 37.7124 38.2188 52 38.2188Z" stroke="black" stroke-width="1.75764"/>
<path d="M51.9999 8.93707C54.1837 8.93707 55.9987 7.21173 55.9987 5.02913C55.9987 2.84652 54.1837 1.12118 51.9999 1.12118C49.8161 1.12118 48.0011 2.84652 48.0011 5.02913C48.0011 7.21173 49.8161 8.93707 51.9999 8.93707Z" fill="black" stroke="black" stroke-width="1.75764"/>
<path d="M51.9999 76.588C54.1837 76.588 55.9987 74.8626 55.9987 72.68C55.9987 70.4974 54.1837 68.7721 51.9999 68.7721C49.8161 68.7721 48.0011 70.4974 48.0011 72.68C48.0011 74.8626 49.8161 76.588 51.9999 76.588Z" fill="black" stroke="black" stroke-width="1.75764"/>
<g filter="url(#filter0_d_386_1140)">
<ellipse cx="51.9996" cy="55.5146" rx="9.36" ry="9.08738" fill="black"/>
<ellipse cx="51.9996" cy="55.5146" rx="9.36" ry="9.08738" stroke="black" stroke-width="1.75764"/>
</g>
<path d="M64.6072 67.7543C54.5067 77.5605 43.9151 84.9799 34.981 89.0617C30.5103 91.1043 26.5003 92.29 23.2016 92.5476C19.8983 92.8055 17.4338 92.1277 15.8617 90.6014C14.2895 89.075 13.5914 86.6823 13.8571 83.4752C14.1223 80.2726 15.3437 76.3794 17.4475 72.0389C21.6518 63.3651 29.2937 53.0819 39.3942 43.2756C49.4946 33.4693 60.0863 26.05 69.0204 21.9682C73.491 19.9256 77.5011 18.7398 80.7997 18.4823C84.1031 18.2244 86.5676 18.9022 88.1397 20.4285C89.7119 21.9549 90.41 24.3476 90.1443 27.5547C89.879 30.7573 88.6577 34.6505 86.5539 38.991C82.3496 47.6648 74.7077 57.948 64.6072 67.7543Z" stroke="black" stroke-width="1.75764"/>
<path d="M64.6082 43.2753C74.7087 53.0815 82.3506 63.3647 86.5549 72.0386C88.6587 76.379 89.8801 80.2723 90.1453 83.4748C90.411 86.6819 89.7129 89.0746 88.1407 90.601C86.5686 92.1274 84.1041 92.8051 80.8008 92.5472C77.5021 92.2897 73.4921 91.1039 69.0214 89.0613C60.0873 84.9795 49.4957 77.5602 39.3952 67.7539C29.2947 57.9476 21.6528 47.6644 17.4485 38.9906C15.3447 34.6502 14.1233 30.7569 13.8581 27.5543C13.5924 24.3472 14.2905 21.9545 15.8627 20.4282C17.4348 18.9018 19.8993 18.224 23.2027 18.4819C26.5013 18.7395 30.5114 19.9253 34.982 21.9678C43.9161 26.0496 54.5077 33.469 64.6082 43.2753Z" stroke="black" stroke-width="1.75764"/>
<path d="M88.4013 78.6065C90.5851 78.6065 92.4001 76.8812 92.4001 74.6986C92.4001 72.516 90.5851 70.7906 88.4013 70.7906C86.2174 70.7906 84.4024 72.516 84.4024 74.6986C84.4024 76.8812 86.2174 78.6065 88.4013 78.6065Z" fill="black" stroke="black" stroke-width="1.75764"/>
<path d="M15.5995 78.6075C17.7833 78.6075 19.5983 76.8821 19.5983 74.6995C19.5983 72.5169 17.7833 70.7916 15.5995 70.7916C13.4157 70.7916 11.6007 72.5169 11.6007 74.6995C11.6007 76.8821 13.4157 78.6075 15.5995 78.6075Z" fill="black" stroke="black" stroke-width="1.75764"/>
<defs>
<filter id="filter0_d_386_1140" x="27.3481" y="31.1357" width="49.3029" height="48.7579" filterUnits="userSpaceOnUse" color-interpolation-filters="sRGB">
<feFlood flood-opacity="0" result="BackgroundImageFix"/>
<feColorMatrix in="SourceAlpha" type="matrix" values="0 0 0 0 0 0 0 0 0 0 0 0 0 0 0 0 0 0 127 0" result="hardAlpha"/>
<feMorphology radius="5.27292" operator="dilate" in="SourceAlpha" result="effect1_dropShadow_386_1140"/>
<feOffset/>
<feGaussianBlur stdDeviation="4.56987"/>
<feComposite in2="hardAlpha" operator="out"/>
<feColorMatrix type="matrix" values="0 0 0 0 1 0 0 0 0 1 0 0 0 0 1 0 0 0 0.25 0"/>
<feBlend mode="normal" in2="BackgroundImageFix" result="effect1_dropShadow_386_1140"/>
<feBlend mode="normal" in="SourceGraphic" in2="effect1_dropShadow_386_1140" result="shape"/>
</filter>
</defs>
</svg>
