<svg width="158" height="16" viewBox="0 0 158 16" fill="none" xmlns="http://www.w3.org/2000/svg">
<path d="M0.761719 0.644531C2.22005 0.696615 3.35938 0.722656 4.17969 0.722656C9.76562 0.690104 12.8581 0.664062 13.457 0.644531C13.5417 1.29557 13.7077 1.91406 13.9551 2.5C14.2025 3.07943 14.5182 3.69792 14.9023 4.35547C14.8503 4.46615 14.7363 4.55404 14.5605 4.61914C14.3262 4.17643 14.043 3.78255 13.7109 3.4375C13.3789 3.09245 12.959 2.76693 12.4512 2.46094C11.9499 2.15495 11.3216 1.9043 10.5664 1.70898C9.81771 1.51367 8.96159 1.38346 7.99805 1.31836H5.30273C5.2181 4.07227 5.17578 6.14583 5.17578 7.53906H7.95898C8.14779 7.53906 8.32357 7.52604 8.48633 7.5C8.6556 7.46745 8.81185 7.41536 8.95508 7.34375C9.09831 7.26562 9.22526 7.19401 9.33594 7.12891C9.45312 7.05729 9.57031 6.95312 9.6875 6.81641C9.80469 6.67318 9.90234 6.55599 9.98047 6.46484C10.0586 6.36719 10.153 6.2207 10.2637 6.02539C10.3743 5.83008 10.459 5.67708 10.5176 5.56641C10.5762 5.45573 10.6641 5.2832 10.7812 5.04883C10.9049 4.81445 10.9993 4.63867 11.0645 4.52148C11.2663 4.59961 11.39 4.68424 11.4355 4.77539C11.1621 5.25716 10.931 5.79102 10.7422 6.37695C10.5534 6.96289 10.459 7.45117 10.459 7.8418C10.459 8.76628 10.7845 9.78516 11.4355 10.8984C11.3835 11.0026 11.2598 11.0905 11.0645 11.1621C10.9928 11.0319 10.8919 10.8464 10.7617 10.6055C10.638 10.3581 10.5404 10.1693 10.4688 10.0391C10.3971 9.90885 10.2995 9.74284 10.1758 9.54102C10.0521 9.33919 9.94141 9.18294 9.84375 9.07227C9.7526 8.96159 9.63216 8.83789 9.48242 8.70117C9.33919 8.56445 9.19596 8.46354 9.05273 8.39844C8.90951 8.32682 8.74349 8.26823 8.55469 8.22266C8.3724 8.17057 8.17383 8.14453 7.95898 8.14453H5.17578C5.17578 9.17969 5.21159 11.2663 5.2832 14.4043H8.39844C9.36198 14.3392 10.2181 14.209 10.9668 14.0137C11.722 13.8184 12.3503 13.5677 12.8516 13.2617C13.3594 12.9557 13.7793 12.6302 14.1113 12.2852C14.4434 11.9401 14.7266 11.5462 14.9609 11.1035C15.1367 11.1686 15.2507 11.2533 15.3027 11.3574C15.2702 11.4225 15.1855 11.5788 15.0488 11.8262C14.9121 12.0736 14.821 12.2428 14.7754 12.334C14.7298 12.4186 14.6517 12.5716 14.541 12.793C14.4368 13.0078 14.3587 13.1836 14.3066 13.3203C14.2546 13.4505 14.1927 13.6165 14.1211 13.8184C14.056 14.0202 14.0007 14.2188 13.9551 14.4141C13.916 14.6029 13.8835 14.7982 13.8574 15H5.2832C3.51888 15 2.00521 15.0195 0.742188 15.0586C0.716146 14.9805 0.703125 14.9154 0.703125 14.8633C0.703125 14.8177 0.716146 14.7298 0.742188 14.5996C1.04167 14.5736 1.28255 14.5475 1.46484 14.5215C1.65365 14.4889 1.88151 14.4401 2.14844 14.375C2.42188 14.3099 2.63021 14.2188 2.77344 14.1016C2.91667 13.9779 2.99154 13.8314 2.99805 13.6621C3.07617 11.6243 3.11523 9.57031 3.11523 7.5C3.11523 5.39062 3.08268 3.57096 3.01758 2.04102C3.01107 1.87174 2.9362 1.72852 2.79297 1.61133C2.64974 1.48763 2.44141 1.39323 2.16797 1.32812C1.90104 1.26302 1.67318 1.21745 1.48438 1.19141C1.30208 1.15885 1.0612 1.12956 0.761719 1.10352C0.735677 0.986328 0.722656 0.904948 0.722656 0.859375C0.722656 0.820312 0.735677 0.748698 0.761719 0.644531ZM140.43 0.644531C141.654 0.696615 143.193 0.722656 145.049 0.722656L148.828 10.957H148.877L152.812 0.722656H153.936C154.743 0.722656 155.882 0.696615 157.354 0.644531C157.38 0.748698 157.393 0.820312 157.393 0.859375C157.393 0.904948 157.38 0.986328 157.354 1.10352C157.119 1.12305 156.93 1.14258 156.787 1.16211C156.644 1.18164 156.452 1.21419 156.211 1.25977C155.977 1.30534 155.788 1.36068 155.645 1.42578C155.501 1.48438 155.374 1.56901 155.264 1.67969C155.153 1.78385 155.094 1.9043 155.088 2.04102C155.023 3.57096 154.99 5.39062 154.99 7.5C154.99 9.64193 155.033 11.696 155.117 13.6621C155.124 13.8314 155.199 13.9779 155.342 14.1016C155.485 14.2188 155.69 14.3099 155.957 14.375C156.23 14.4401 156.458 14.4889 156.641 14.5215C156.829 14.5475 157.074 14.5736 157.373 14.5996C157.399 14.7038 157.412 14.7917 157.412 14.8633C157.412 14.9154 157.399 14.9805 157.373 15.0586C156.273 15.0195 155.14 15 153.975 15C152.803 15 151.67 15.0195 150.576 15.0586C150.55 14.9805 150.537 14.9154 150.537 14.8633C150.537 14.7526 150.55 14.6647 150.576 14.5996C150.876 14.5736 151.117 14.5475 151.299 14.5215C151.488 14.4889 151.715 14.4401 151.982 14.375C152.256 14.3099 152.464 14.2188 152.607 14.1016C152.751 13.9779 152.826 13.8314 152.832 13.6621C152.897 11.6309 152.93 9.81771 152.93 8.22266C152.93 6.69271 152.897 4.95117 152.832 2.99805H152.754L148.291 14.7559H148.193L143.438 2.76367H143.33C143.278 4.3457 143.252 6.16536 143.252 8.22266C143.252 9.73307 143.285 11.4974 143.35 13.5156C143.363 14.1081 144.082 14.4694 145.508 14.5996C145.54 14.7103 145.557 14.7982 145.557 14.8633C145.557 14.9284 145.54 14.9935 145.508 15.0586C144.473 15.0195 143.548 15 142.734 15C142.214 15 141.341 15.0195 140.117 15.0586C140.085 14.9935 140.068 14.9284 140.068 14.8633C140.068 14.7526 140.085 14.6647 140.117 14.5996C141.556 14.4629 142.275 14.1016 142.275 13.5156C142.354 11.4844 142.393 9.47917 142.393 7.5C142.393 6.07422 142.373 4.56055 142.334 2.95898C142.327 2.68555 142.311 2.45768 142.285 2.27539C142.259 2.08659 142.21 1.92383 142.139 1.78711C142.067 1.65039 141.992 1.54297 141.914 1.46484C141.836 1.38672 141.715 1.31836 141.553 1.25977C141.39 1.19466 141.23 1.14909 141.074 1.12305C140.924 1.09049 140.71 1.05469 140.43 1.01562C140.404 0.963542 140.391 0.904948 140.391 0.839844C140.391 0.761719 140.404 0.696615 140.43 0.644531Z" fill="#768E0F"/>
<path d="M16.4648 0.644531C17.9232 0.696615 19.056 0.722656 19.8633 0.722656C20.6706 0.722656 21.8034 0.696615 23.2617 0.644531C23.2878 0.748698 23.3008 0.820312 23.3008 0.859375C23.3008 0.904948 23.2878 0.986328 23.2617 1.10352C22.9622 1.12956 22.7181 1.15885 22.5293 1.19141C22.347 1.21745 22.1191 1.26302 21.8457 1.32812C21.5788 1.39323 21.3737 1.48763 21.2305 1.61133C21.0872 1.72852 21.0124 1.87174 21.0059 2.04102C20.9212 4.25456 20.8789 6.3151 20.8789 8.22266C20.8789 9.20573 20.9147 11.2663 20.9863 14.4043H24.0039C24.9609 14.3392 25.8171 14.1992 26.5723 13.9844C27.3275 13.7695 27.9557 13.4961 28.457 13.1641C28.9648 12.8255 29.3815 12.4772 29.707 12.1191C30.0391 11.7546 30.3255 11.3477 30.5664 10.8984C30.7357 10.9635 30.8464 11.0514 30.8984 11.1621C30.6315 11.6569 30.4232 12.0573 30.2734 12.3633C30.1302 12.6693 29.9707 13.0729 29.7949 13.5742C29.6257 14.069 29.515 14.5443 29.4629 15H20.9863C19.222 15 17.7083 15.0195 16.4453 15.0586C16.4193 14.9805 16.4062 14.9154 16.4062 14.8633C16.4062 14.8177 16.4193 14.7298 16.4453 14.5996C16.7448 14.5736 16.9857 14.5475 17.168 14.5215C17.3568 14.4889 17.5846 14.4401 17.8516 14.375C18.125 14.3099 18.3333 14.2188 18.4766 14.1016C18.6198 13.9779 18.6947 13.8314 18.7012 13.6621C18.7793 11.6243 18.8184 9.57031 18.8184 7.5C18.8184 5.39062 18.7858 3.57096 18.7207 2.04102C18.7142 1.87174 18.6393 1.72852 18.4961 1.61133C18.3529 1.48763 18.1445 1.39323 17.8711 1.32812C17.6042 1.26302 17.3763 1.21745 17.1875 1.19141C17.0052 1.15885 16.7643 1.12956 16.4648 1.10352C16.4388 0.986328 16.4258 0.904948 16.4258 0.859375C16.4258 0.794271 16.4388 0.722656 16.4648 0.644531ZM32.0703 0.644531C33.5286 0.696615 34.668 0.722656 35.4883 0.722656C41.0742 0.690104 44.1667 0.664062 44.7656 0.644531C44.8503 1.29557 45.0163 1.91406 45.2637 2.5C45.5111 3.07943 45.8268 3.69792 46.2109 4.35547C46.1589 4.46615 46.0449 4.55404 45.8691 4.61914C45.6348 4.17643 45.3516 3.78255 45.0195 3.4375C44.6875 3.09245 44.2676 2.76693 43.7598 2.46094C43.2585 2.15495 42.6302 1.9043 41.875 1.70898C41.1263 1.51367 40.2702 1.38346 39.3066 1.31836H36.6113C36.5267 4.07227 36.4844 6.14583 36.4844 7.53906H39.2676C39.4564 7.53906 39.6322 7.52604 39.7949 7.5C39.9642 7.46745 40.1204 7.41536 40.2637 7.34375C40.4069 7.26562 40.5339 7.19401 40.6445 7.12891C40.7617 7.05729 40.8789 6.95312 40.9961 6.81641C41.1133 6.67318 41.2109 6.55599 41.2891 6.46484C41.3672 6.36719 41.4616 6.2207 41.5723 6.02539C41.6829 5.83008 41.7676 5.67708 41.8262 5.56641C41.8848 5.45573 41.9727 5.2832 42.0898 5.04883C42.2135 4.81445 42.3079 4.63867 42.373 4.52148C42.5749 4.59961 42.6986 4.68424 42.7441 4.77539C42.4707 5.25716 42.2396 5.79102 42.0508 6.37695C41.862 6.96289 41.7676 7.45117 41.7676 7.8418C41.7676 8.76628 42.0931 9.78516 42.7441 10.8984C42.6921 11.0026 42.5684 11.0905 42.373 11.1621C42.3014 11.0319 42.2005 10.8464 42.0703 10.6055C41.9466 10.3581 41.849 10.1693 41.7773 10.0391C41.7057 9.90885 41.6081 9.74284 41.4844 9.54102C41.3607 9.33919 41.25 9.18294 41.1523 9.07227C41.0612 8.96159 40.9408 8.83789 40.791 8.70117C40.6478 8.56445 40.5046 8.46354 40.3613 8.39844C40.2181 8.32682 40.0521 8.26823 39.8633 8.22266C39.681 8.17057 39.4824 8.14453 39.2676 8.14453H36.4844C36.4844 9.17969 36.5202 11.2663 36.5918 14.4043H39.707C40.6706 14.3392 41.5267 14.209 42.2754 14.0137C43.0306 13.8184 43.6589 13.5677 44.1602 13.2617C44.668 12.9557 45.0879 12.6302 45.4199 12.2852C45.752 11.9401 46.0352 11.5462 46.2695 11.1035C46.4453 11.1686 46.5592 11.2533 46.6113 11.3574C46.5788 11.4225 46.4941 11.5788 46.3574 11.8262C46.2207 12.0736 46.1296 12.2428 46.084 12.334C46.0384 12.4186 45.9603 12.5716 45.8496 12.793C45.7454 13.0078 45.6673 13.1836 45.6152 13.3203C45.5632 13.4505 45.5013 13.6165 45.4297 13.8184C45.3646 14.0202 45.3092 14.2188 45.2637 14.4141C45.2246 14.6029 45.1921 14.7982 45.166 15H36.5918C34.8275 15 33.3138 15.0195 32.0508 15.0586C32.0247 14.9805 32.0117 14.9154 32.0117 14.8633C32.0117 14.8177 32.0247 14.7298 32.0508 14.5996C32.3503 14.5736 32.5911 14.5475 32.7734 14.5215C32.9622 14.4889 33.1901 14.4401 33.457 14.375C33.7305 14.3099 33.9388 14.2188 34.082 14.1016C34.2253 13.9779 34.3001 13.8314 34.3066 13.6621C34.3848 11.6243 34.4238 9.57031 34.4238 7.5C34.4238 5.39062 34.3913 3.57096 34.3262 2.04102C34.3197 1.87174 34.2448 1.72852 34.1016 1.61133C33.9583 1.48763 33.75 1.39323 33.4766 1.32812C33.2096 1.26302 32.9818 1.21745 32.793 1.19141C32.6107 1.15885 32.3698 1.12956 32.0703 1.10352C32.0443 0.986328 32.0312 0.904948 32.0312 0.859375C32.0312 0.820312 32.0443 0.748698 32.0703 0.644531ZM47.9688 0.644531C49.1927 0.696615 50.7324 0.722656 52.5879 0.722656L56.3672 10.957H56.416L60.3516 0.722656H61.4746C62.2819 0.722656 63.4212 0.696615 64.8926 0.644531C64.9186 0.748698 64.9316 0.820312 64.9316 0.859375C64.9316 0.904948 64.9186 0.986328 64.8926 1.10352C64.6582 1.12305 64.4694 1.14258 64.3262 1.16211C64.1829 1.18164 63.9909 1.21419 63.75 1.25977C63.5156 1.30534 63.3268 1.36068 63.1836 1.42578C63.0404 1.48438 62.9134 1.56901 62.8027 1.67969C62.6921 1.78385 62.6335 1.9043 62.627 2.04102C62.5618 3.57096 62.5293 5.39062 62.5293 7.5C62.5293 9.64193 62.5716 11.696 62.6562 13.6621C62.6628 13.8314 62.7376 13.9779 62.8809 14.1016C63.0241 14.2188 63.2292 14.3099 63.4961 14.375C63.7695 14.4401 63.9974 14.4889 64.1797 14.5215C64.3685 14.5475 64.6126 14.5736 64.9121 14.5996C64.9382 14.7038 64.9512 14.7917 64.9512 14.8633C64.9512 14.9154 64.9382 14.9805 64.9121 15.0586C63.8118 15.0195 62.679 15 61.5137 15C60.3418 15 59.209 15.0195 58.1152 15.0586C58.0892 14.9805 58.0762 14.9154 58.0762 14.8633C58.0762 14.7526 58.0892 14.6647 58.1152 14.5996C58.4147 14.5736 58.6556 14.5475 58.8379 14.5215C59.0267 14.4889 59.2546 14.4401 59.5215 14.375C59.7949 14.3099 60.0033 14.2188 60.1465 14.1016C60.2897 13.9779 60.3646 13.8314 60.3711 13.6621C60.4362 11.6309 60.4688 9.81771 60.4688 8.22266C60.4688 6.69271 60.4362 4.95117 60.3711 2.99805H60.293L55.8301 14.7559H55.7324L50.9766 2.76367H50.8691C50.8171 4.3457 50.791 6.16536 50.791 8.22266C50.791 9.73307 50.8236 11.4974 50.8887 13.5156C50.9017 14.1081 51.6211 14.4694 53.0469 14.5996C53.0794 14.7103 53.0957 14.7982 53.0957 14.8633C53.0957 14.9284 53.0794 14.9935 53.0469 15.0586C52.0117 15.0195 51.0872 15 50.2734 15C49.7526 15 48.8802 15.0195 47.6562 15.0586C47.6237 14.9935 47.6074 14.9284 47.6074 14.8633C47.6074 14.7526 47.6237 14.6647 47.6562 14.5996C49.0951 14.4629 49.8145 14.1016 49.8145 13.5156C49.8926 11.4844 49.9316 9.47917 49.9316 7.5C49.9316 6.07422 49.9121 4.56055 49.873 2.95898C49.8665 2.68555 49.8503 2.45768 49.8242 2.27539C49.7982 2.08659 49.7493 1.92383 49.6777 1.78711C49.6061 1.65039 49.5312 1.54297 49.4531 1.46484C49.375 1.38672 49.2546 1.31836 49.0918 1.25977C48.929 1.19466 48.7695 1.14909 48.6133 1.12305C48.4635 1.09049 48.2487 1.05469 47.9688 1.01562C47.9427 0.963542 47.9297 0.904948 47.9297 0.839844C47.9297 0.761719 47.9427 0.696615 47.9688 0.644531ZM66.4258 0.644531C67.8841 0.696615 69.0234 0.722656 69.8438 0.722656C75.4297 0.690104 78.5221 0.664062 79.1211 0.644531C79.2057 1.29557 79.3717 1.91406 79.6191 2.5C79.8665 3.07943 80.1823 3.69792 80.5664 4.35547C80.5143 4.46615 80.4004 4.55404 80.2246 4.61914C79.9902 4.17643 79.707 3.78255 79.375 3.4375C79.043 3.09245 78.623 2.76693 78.1152 2.46094C77.6139 2.15495 76.9857 1.9043 76.2305 1.70898C75.4818 1.51367 74.6257 1.38346 73.6621 1.31836H70.9668C70.8822 4.07227 70.8398 6.14583 70.8398 7.53906H73.623C73.8118 7.53906 73.9876 7.52604 74.1504 7.5C74.3197 7.46745 74.4759 7.41536 74.6191 7.34375C74.7624 7.26562 74.8893 7.19401 75 7.12891C75.1172 7.05729 75.2344 6.95312 75.3516 6.81641C75.4688 6.67318 75.5664 6.55599 75.6445 6.46484C75.7227 6.36719 75.8171 6.2207 75.9277 6.02539C76.0384 5.83008 76.123 5.67708 76.1816 5.56641C76.2402 5.45573 76.3281 5.2832 76.4453 5.04883C76.569 4.81445 76.6634 4.63867 76.7285 4.52148C76.9303 4.59961 77.054 4.68424 77.0996 4.77539C76.8262 5.25716 76.5951 5.79102 76.4062 6.37695C76.2174 6.96289 76.123 7.45117 76.123 7.8418C76.123 8.76628 76.4486 9.78516 77.0996 10.8984C77.0475 11.0026 76.9238 11.0905 76.7285 11.1621C76.6569 11.0319 76.556 10.8464 76.4258 10.6055C76.3021 10.3581 76.2044 10.1693 76.1328 10.0391C76.0612 9.90885 75.9635 9.74284 75.8398 9.54102C75.7161 9.33919 75.6055 9.18294 75.5078 9.07227C75.4167 8.96159 75.2962 8.83789 75.1465 8.70117C75.0033 8.56445 74.86 8.46354 74.7168 8.39844C74.5736 8.32682 74.4076 8.26823 74.2188 8.22266C74.0365 8.17057 73.8379 8.14453 73.623 8.14453H70.8398C70.8398 9.17969 70.8757 11.2663 70.9473 14.4043H74.0625C75.026 14.3392 75.8822 14.209 76.6309 14.0137C77.3861 13.8184 78.0143 13.5677 78.5156 13.2617C79.0234 12.9557 79.4434 12.6302 79.7754 12.2852C80.1074 11.9401 80.3906 11.5462 80.625 11.1035C80.8008 11.1686 80.9147 11.2533 80.9668 11.3574C80.9342 11.4225 80.8496 11.5788 80.7129 11.8262C80.5762 12.0736 80.485 12.2428 80.4395 12.334C80.3939 12.4186 80.3158 12.5716 80.2051 12.793C80.1009 13.0078 80.0228 13.1836 79.9707 13.3203C79.9186 13.4505 79.8568 13.6165 79.7852 13.8184C79.7201 14.0202 79.6647 14.2188 79.6191 14.4141C79.5801 14.6029 79.5475 14.7982 79.5215 15H70.9473C69.1829 15 67.6693 15.0195 66.4062 15.0586C66.3802 14.9805 66.3672 14.9154 66.3672 14.8633C66.3672 14.8177 66.3802 14.7298 66.4062 14.5996C66.7057 14.5736 66.9466 14.5475 67.1289 14.5215C67.3177 14.4889 67.5456 14.4401 67.8125 14.375C68.0859 14.3099 68.2943 14.2188 68.4375 14.1016C68.5807 13.9779 68.6556 13.8314 68.6621 13.6621C68.7402 11.6243 68.7793 9.57031 68.7793 7.5C68.7793 5.39062 68.7467 3.57096 68.6816 2.04102C68.6751 1.87174 68.6003 1.72852 68.457 1.61133C68.3138 1.48763 68.1055 1.39323 67.832 1.32812C67.5651 1.26302 67.3372 1.21745 67.1484 1.19141C66.9661 1.15885 66.7253 1.12956 66.4258 1.10352C66.3997 0.986328 66.3867 0.904948 66.3867 0.859375C66.3867 0.820312 66.3997 0.748698 66.4258 0.644531ZM82.1289 0.644531C83.1966 0.696615 84.5443 0.722656 86.1719 0.722656C90.7747 6.49089 93.2487 9.5638 93.5938 9.94141C93.9388 10.3125 94.1113 10.498 94.1113 10.498H94.1895C94.2155 9.24805 94.2285 8.24219 94.2285 7.48047C94.2285 5.97656 94.196 4.20898 94.1309 2.17773C94.1178 1.5918 93.3952 1.23372 91.9629 1.10352C91.9368 0.960286 91.9238 0.872396 91.9238 0.839844C91.9238 0.78776 91.9368 0.722656 91.9629 0.644531C93.0111 0.683594 93.9388 0.703125 94.7461 0.703125C95.2669 0.703125 96.1393 0.683594 97.3633 0.644531C97.3893 0.722656 97.4023 0.78776 97.4023 0.839844C97.4023 0.94401 97.3893 1.0319 97.3633 1.10352C95.9375 1.23372 95.2181 1.5918 95.2051 2.17773C95.127 4.21549 95.0879 6.22396 95.0879 8.20312C95.0879 11.2305 95.1204 13.5091 95.1855 15.0391L95.0098 15.0586L85.3027 3.11523H85.2051C85.166 4.80143 85.1465 6.50391 85.1465 8.22266C85.1465 9.73307 85.179 11.4974 85.2441 13.5156C85.2572 14.1081 85.9766 14.4694 87.4023 14.5996C87.4349 14.7103 87.4512 14.7982 87.4512 14.8633C87.4512 14.9284 87.4349 14.9935 87.4023 15.0586C86.3672 15.0195 85.4427 15 84.6289 15C84.1081 15 83.2357 15.0195 82.0117 15.0586C81.9792 14.9935 81.9629 14.9284 81.9629 14.8633C81.9629 14.7526 81.9792 14.6647 82.0117 14.5996C83.4505 14.4629 84.1699 14.1016 84.1699 13.5156C84.248 11.4844 84.2871 9.47917 84.2871 7.5C84.2871 5.35156 84.2611 3.48633 84.209 1.9043C83.6621 1.42904 82.9688 1.16211 82.1289 1.10352C82.0898 1.01888 82.0703 0.94401 82.0703 0.878906C82.0703 0.78125 82.0898 0.703125 82.1289 0.644531ZM99.5508 0.644531C100.26 0.670573 101.146 0.690104 102.207 0.703125C103.268 0.716146 104.515 0.722656 105.947 0.722656C107.38 0.722656 108.626 0.716146 109.688 0.703125C110.755 0.690104 111.647 0.670573 112.363 0.644531C112.402 0.924479 112.451 1.19466 112.51 1.45508C112.568 1.70898 112.666 1.99219 112.803 2.30469L113.096 2.96875L113.809 4.35547C113.763 4.45964 113.649 4.54753 113.467 4.61914C113.245 4.20898 112.975 3.81836 112.656 3.44727C112.337 3.07617 111.93 2.74089 111.436 2.44141C110.947 2.14193 110.348 1.89128 109.639 1.68945C108.936 1.48763 108.086 1.35091 107.09 1.2793C107.057 2.0931 107.031 3.01432 107.012 4.04297C106.999 5.0651 106.992 6.20443 106.992 7.46094C106.992 8.72396 106.999 9.86979 107.012 10.8984C107.031 11.9271 107.057 12.8483 107.09 13.6621C107.096 13.8184 107.158 13.9518 107.275 14.0625C107.393 14.1667 107.552 14.2546 107.754 14.3262C107.962 14.3978 108.2 14.4564 108.467 14.502C108.74 14.541 109.033 14.5736 109.346 14.5996C109.372 14.7103 109.385 14.7982 109.385 14.8633C109.385 14.9219 109.372 14.987 109.346 15.0586C108.252 15.0195 107.119 15 105.947 15C104.782 15 103.649 15.0195 102.549 15.0586C102.523 14.987 102.51 14.9219 102.51 14.8633C102.51 14.7982 102.523 14.7103 102.549 14.5996L103.018 14.5508C103.187 14.5312 103.376 14.5052 103.584 14.4727C103.792 14.4336 103.984 14.3815 104.16 14.3164C104.342 14.2513 104.495 14.1699 104.619 14.0723C104.743 13.9746 104.805 13.8542 104.805 13.7109V13.6621C104.837 12.4707 104.863 11.3607 104.883 10.332C104.902 9.30339 104.912 8.34635 104.912 7.46094C104.912 6.58203 104.902 5.63151 104.883 4.60938C104.863 3.58073 104.837 2.4707 104.805 1.2793C103.867 1.33138 103.05 1.45833 102.354 1.66016C101.663 1.85547 101.064 2.10286 100.557 2.40234C100.049 2.69531 99.6257 3.03385 99.2871 3.41797C98.9486 3.79557 98.6686 4.19596 98.4473 4.61914C98.265 4.54753 98.151 4.45964 98.1055 4.35547L98.5449 3.52539L98.75 3.10547C98.8346 2.92969 98.9193 2.75065 99.0039 2.56836C99.0885 2.38607 99.1667 2.19727 99.2383 2.00195C99.3164 1.80013 99.3815 1.58854 99.4336 1.36719C99.4857 1.13932 99.5247 0.898438 99.5508 0.644531ZM114.668 0.644531C116.126 0.696615 117.259 0.722656 118.066 0.722656C118.874 0.722656 120.007 0.696615 121.465 0.644531C121.491 0.748698 121.504 0.820312 121.504 0.859375C121.504 0.93099 121.491 1.01237 121.465 1.10352C121.165 1.12956 120.921 1.15885 120.732 1.19141C120.55 1.21745 120.322 1.26302 120.049 1.32812C119.782 1.39323 119.577 1.48763 119.434 1.61133C119.29 1.72852 119.215 1.87174 119.209 2.04102C119.124 4.25456 119.082 6.3151 119.082 8.22266C119.082 9.61589 119.118 11.429 119.189 13.6621C119.196 13.8314 119.271 13.9779 119.414 14.1016C119.557 14.2188 119.762 14.3099 120.029 14.375C120.303 14.4401 120.531 14.4889 120.713 14.5215C120.902 14.5475 121.146 14.5736 121.445 14.5996C121.471 14.6777 121.484 14.7656 121.484 14.8633C121.484 14.9154 121.471 14.9805 121.445 15.0586C120.339 15.0195 119.206 15 118.047 15C116.875 15 115.742 15.0195 114.648 15.0586C114.622 14.9805 114.609 14.9154 114.609 14.8633C114.609 14.7526 114.622 14.6647 114.648 14.5996C114.844 14.5801 115 14.5638 115.117 14.5508C115.234 14.5378 115.394 14.515 115.596 14.4824C115.804 14.4499 115.97 14.4141 116.094 14.375C116.224 14.3294 116.357 14.2741 116.494 14.209C116.631 14.1439 116.732 14.0658 116.797 13.9746C116.868 13.8835 116.904 13.7793 116.904 13.6621C116.982 11.6243 117.021 9.57031 117.021 7.5C117.021 5.39062 116.989 3.57096 116.924 2.04102C116.917 1.87174 116.842 1.72852 116.699 1.61133C116.556 1.48763 116.348 1.39323 116.074 1.32812C115.807 1.26302 115.579 1.21745 115.391 1.19141C115.208 1.15885 114.967 1.12956 114.668 1.10352C114.642 0.986328 114.629 0.904948 114.629 0.859375C114.629 0.794271 114.642 0.722656 114.668 0.644531ZM122.646 0.644531C123.747 0.683594 124.88 0.703125 126.045 0.703125C127.217 0.703125 128.35 0.683594 129.443 0.644531C129.469 0.748698 129.482 0.820312 129.482 0.859375C129.482 0.904948 129.469 0.986328 129.443 1.10352C129.248 1.12305 129.092 1.13932 128.975 1.15234C128.857 1.16536 128.695 1.18815 128.486 1.2207C128.285 1.25326 128.118 1.29232 127.988 1.33789C127.865 1.37695 127.734 1.42904 127.598 1.49414C127.461 1.55924 127.357 1.63737 127.285 1.72852C127.22 1.81966 127.188 1.92383 127.188 2.04102C127.161 2.9069 127.148 5.28646 127.148 9.17969C127.148 11.0352 127.458 12.3828 128.076 13.2227C128.701 14.0625 129.759 14.4824 131.25 14.4824C132.754 14.4824 133.913 14.0267 134.727 13.1152C135.54 12.1973 135.947 10.8854 135.947 9.17969C135.947 6.07422 135.928 3.74023 135.889 2.17773C135.876 1.5918 135.156 1.23372 133.73 1.10352C133.704 0.960286 133.691 0.872396 133.691 0.839844C133.691 0.78776 133.704 0.722656 133.73 0.644531C134.766 0.683594 135.69 0.703125 136.504 0.703125C137.025 0.703125 137.9 0.683594 139.131 0.644531C139.157 0.722656 139.17 0.78776 139.17 0.839844C139.17 0.94401 139.157 1.0319 139.131 1.10352C137.718 1.23372 136.995 1.5918 136.963 2.17773C136.898 3.72721 136.865 6.0612 136.865 9.17969C136.865 10.1302 136.742 10.9798 136.494 11.7285C136.247 12.4707 135.931 13.0664 135.547 13.5156C135.163 13.9648 134.714 14.3359 134.199 14.6289C133.691 14.9219 133.2 15.1237 132.725 15.2344C132.249 15.3451 131.771 15.4004 131.289 15.4004C130.645 15.4004 130.065 15.3646 129.551 15.293C129.036 15.2214 128.535 15.1009 128.047 14.9316C127.559 14.7559 127.135 14.515 126.777 14.209C126.419 13.8965 126.104 13.5156 125.83 13.0664C125.557 12.6172 125.352 12.0671 125.215 11.416C125.078 10.765 125.01 10.0195 125.01 9.17969V7.57812C125.01 5.39714 124.974 3.55143 124.902 2.04102C124.896 1.87174 124.821 1.72852 124.678 1.61133C124.535 1.48763 124.326 1.39323 124.053 1.32812C123.786 1.26302 123.558 1.21745 123.369 1.19141C123.187 1.15885 122.946 1.12956 122.646 1.10352C122.62 0.986328 122.607 0.904948 122.607 0.859375C122.607 0.820312 122.62 0.748698 122.646 0.644531Z" fill="white"/>
</svg>
