<svg width="400" height="400" viewBox="0 0 400 400" fill="none" xmlns="http://www.w3.org/2000/svg">
<path d="M253.845 200C253.845 242.354 247.662 280.631 237.714 308.265C232.738 322.088 226.848 333.166 220.386 340.759C213.918 348.359 207.022 352.308 199.999 352.308C192.975 352.308 186.08 348.359 179.612 340.759C173.15 333.166 167.26 322.088 162.284 308.265C152.335 280.631 146.153 242.354 146.153 200C146.153 157.647 152.335 119.37 162.284 91.7359C167.26 77.9125 173.15 66.8345 179.612 59.2414C186.08 51.6422 192.975 47.6928 199.999 47.6928C207.022 47.6928 213.918 51.6422 220.386 59.2414C226.848 66.8345 232.738 77.9125 237.714 91.7359C247.662 119.37 253.845 157.647 253.845 200Z" stroke="#768E0F" stroke-width="3.07692"/>
<path d="M199.999 146.153C242.353 146.153 280.63 152.336 308.264 162.284C322.087 167.26 333.165 173.15 340.758 179.613C348.358 186.081 352.307 192.976 352.307 199.999C352.307 207.023 348.358 213.918 340.758 220.386C333.165 226.849 322.087 232.738 308.264 237.714C280.63 247.663 242.353 253.845 199.999 253.845C157.646 253.845 119.369 247.663 91.7349 237.714C77.9115 232.738 66.8335 226.849 59.2405 220.386C51.6413 213.918 47.6918 207.023 47.6918 199.999C47.6918 192.976 51.6413 186.081 59.2405 179.613C66.8335 173.15 77.9115 167.26 91.7349 162.284C119.369 152.336 157.646 146.153 199.999 146.153Z" stroke="#768E0F" stroke-width="3.07692"/>
<circle cx="199.999" cy="252.307" r="10.7692" fill="white" stroke="#768E0F" stroke-width="3.07692"/>
<g filter="url(#filter0_d_567_815)">
<circle cx="199.999" cy="200" r="27.6923" fill="white"/>
<circle cx="199.999" cy="200" r="27.6923" stroke="#768E0F" stroke-width="3.07692"/>
</g>
<path d="M238.072 238.076C208.124 268.025 176.686 290.719 150.111 303.225C136.818 309.48 124.82 313.149 114.881 313.948C104.934 314.748 97.2659 312.665 92.2995 307.699C87.333 302.733 85.2502 295.064 86.0501 285.117C86.8494 275.178 90.5182 263.181 96.7739 249.887C109.28 223.313 131.974 191.875 161.922 161.926C191.871 131.978 223.309 109.283 249.883 96.7779C263.177 90.5221 275.174 86.8533 285.113 86.0541C295.06 85.2541 302.729 87.337 307.695 92.3034C312.662 97.2699 314.744 104.938 313.944 114.885C313.145 124.824 309.476 136.822 303.221 150.115C290.715 176.69 268.021 208.128 238.072 238.076Z" stroke="white" stroke-width="3.07692"/>
<path d="M238.075 161.927C268.024 191.875 290.718 223.313 303.224 249.888C309.479 263.181 313.148 275.179 313.947 285.118C314.747 295.065 312.665 302.733 307.698 307.7C302.732 312.666 295.063 314.749 285.116 313.949C275.177 313.15 263.18 309.481 249.886 303.225C223.312 290.719 191.874 268.025 161.925 238.077C131.977 208.128 109.282 176.69 96.7769 150.116C90.5211 136.822 86.8523 124.825 86.0531 114.886C85.2532 104.939 87.336 97.2704 92.3025 92.3039C97.2689 87.3375 104.937 85.2546 114.884 86.0546C124.823 86.8538 136.821 90.5226 150.114 96.7784C176.689 109.284 208.127 131.978 238.075 161.927Z" stroke="white" stroke-width="3.07692"/>
<circle cx="307.691" cy="258.461" r="10.7692" fill="#768E0F" stroke="white" stroke-width="3.07692"/>
<circle cx="92.3069" cy="258.461" r="10.7692" fill="#768E0F" stroke="white" stroke-width="3.07692"/>
<circle cx="199.999" cy="46.1536" r="10.7692" fill="white" stroke="#768E0F" stroke-width="3.07692"/>
<defs>
<filter id="filter0_d_567_815" x="145.538" y="145.539" width="108.922" height="108.922" filterUnits="userSpaceOnUse" color-interpolation-filters="sRGB">
<feFlood flood-opacity="0" result="BackgroundImageFix"/>
<feColorMatrix in="SourceAlpha" type="matrix" values="0 0 0 0 0 0 0 0 0 0 0 0 0 0 0 0 0 0 127 0" result="hardAlpha"/>
<feMorphology radius="9.23077" operator="dilate" in="SourceAlpha" result="effect1_dropShadow_567_815"/>
<feOffset/>
<feGaussianBlur stdDeviation="8"/>
<feComposite in2="hardAlpha" operator="out"/>
<feColorMatrix type="matrix" values="0 0 0 0 1 0 0 0 0 1 0 0 0 0 1 0 0 0 0.25 0"/>
<feBlend mode="normal" in2="BackgroundImageFix" result="effect1_dropShadow_567_815"/>
<feBlend mode="normal" in="SourceGraphic" in2="effect1_dropShadow_567_815" result="shape"/>
</filter>
</defs>
</svg>
