<svg width="130" height="130" viewBox="0 0 130 130" fill="none" xmlns="http://www.w3.org/2000/svg">
<path d="M82.5 65C82.5 78.765 80.4906 91.205 77.2575 100.186C75.6401 104.679 73.726 108.279 71.6257 110.747C69.5236 113.216 67.2827 114.5 65 114.5C62.7173 114.5 60.4764 113.216 58.3743 110.747C56.274 108.279 54.3599 104.679 52.7425 100.186C49.5094 91.205 47.5 78.765 47.5 65C47.5 51.235 49.5094 38.795 52.7425 29.814C54.3599 25.3214 56.274 21.7211 58.3743 19.2533C60.4764 16.7836 62.7173 15.5 65 15.5C67.2827 15.5 69.5236 16.7836 71.6257 19.2533C73.726 21.7211 75.6401 25.3214 77.2575 29.814C80.4906 38.795 82.5 51.235 82.5 65Z" stroke="#768E0F"/>
<path d="M65 47.4999C78.765 47.4999 91.205 49.5093 100.186 52.7424C104.679 54.3597 108.279 56.2738 110.747 58.3742C113.216 60.4763 114.5 62.7172 114.5 64.9999C114.5 67.2825 113.216 69.5234 110.747 71.6255C108.279 73.7259 104.679 75.64 100.186 77.2574C91.205 80.4905 78.765 82.4999 65 82.4999C51.235 82.4999 38.795 80.4905 29.814 77.2574C25.3214 75.64 21.7211 73.7259 19.2533 71.6255C16.7836 69.5234 15.5 67.2825 15.5 64.9999C15.5 62.7172 16.7836 60.4763 19.2533 58.3742C21.7211 56.2738 25.3214 54.3597 29.814 52.7424C38.795 49.5093 51.235 47.4999 65 47.4999Z" stroke="#768E0F"/>
<circle cx="65" cy="82" r="3.5" fill="white" stroke="#768E0F"/>
<g filter="url(#filter0_d_100_733)">
<circle cx="65" cy="65" r="9" fill="white"/>
<circle cx="65" cy="65" r="9" stroke="#768E0F"/>
</g>
<path d="M77.3744 77.3744C67.6411 87.1077 57.4238 94.4833 48.7871 98.5476C44.4667 100.581 40.5674 101.773 37.3373 102.033C34.1045 102.293 31.6123 101.616 29.9982 100.002C28.3841 98.3877 27.7072 95.8955 27.9672 92.6627C28.227 89.4326 29.4193 85.5333 31.4524 81.2129C35.5168 72.5762 42.8924 62.3589 52.6257 52.6256C62.359 42.8923 72.5762 35.5167 81.2129 31.4524C85.5333 29.4193 89.4326 28.2269 92.6628 27.9672C95.8955 27.7072 98.3877 28.3841 100.002 29.9982C101.616 31.6123 102.293 34.1045 102.033 37.3373C101.773 40.5674 100.581 44.4667 98.5476 48.7871C94.4833 57.4238 87.1077 67.6411 77.3744 77.3744Z" stroke="white"/>
<path d="M77.3744 52.6256C87.1077 62.3589 94.4833 72.5762 98.5476 81.2129C100.581 85.5333 101.773 89.4326 102.033 92.6627C102.293 95.8955 101.616 98.3877 100.002 100.002C98.3877 101.616 95.8955 102.293 92.6627 102.033C89.4326 101.773 85.5333 100.581 81.2129 98.5476C72.5762 94.4833 62.3589 87.1077 52.6256 77.3744C42.8923 67.6411 35.5167 57.4238 31.4524 48.7871C29.4193 44.4667 28.2269 40.5674 27.9672 37.3373C27.7072 34.1045 28.3841 31.6123 29.9982 29.9982C31.6123 28.3841 34.1045 27.7072 37.3373 27.9672C40.5674 28.2269 44.4667 29.4193 48.7871 31.4524C57.4238 35.5167 67.6411 42.8923 77.3744 52.6256Z" stroke="white"/>
<circle cx="100" cy="84" r="3.5" fill="#768E0F" stroke="white"/>
<circle cx="30" cy="84" r="3.5" fill="#768E0F" stroke="white"/>
<circle cx="65" cy="15" r="3.5" fill="white" stroke="#768E0F"/>
<defs>
<filter id="filter0_d_100_733" x="47.3" y="47.3" width="35.4" height="35.4" filterUnits="userSpaceOnUse" color-interpolation-filters="sRGB">
<feFlood flood-opacity="0" result="BackgroundImageFix"/>
<feColorMatrix in="SourceAlpha" type="matrix" values="0 0 0 0 0 0 0 0 0 0 0 0 0 0 0 0 0 0 127 0" result="hardAlpha"/>
<feMorphology radius="3" operator="dilate" in="SourceAlpha" result="effect1_dropShadow_100_733"/>
<feOffset/>
<feGaussianBlur stdDeviation="2.6"/>
<feComposite in2="hardAlpha" operator="out"/>
<feColorMatrix type="matrix" values="0 0 0 0 1 0 0 0 0 1 0 0 0 0 1 0 0 0 0.25 0"/>
<feBlend mode="normal" in2="BackgroundImageFix" result="effect1_dropShadow_100_733"/>
<feBlend mode="normal" in="SourceGraphic" in2="effect1_dropShadow_100_733" result="shape"/>
</filter>
</defs>
</svg>
