<svg width="41" height="47" viewBox="0 0 41 47" fill="none" xmlns="http://www.w3.org/2000/svg">
<path d="M27.769 24.6699C27.769 30.8192 26.952 36.3772 25.6371 40.3902C24.9793 42.3979 24.2008 44.0065 23.3471 45.1085C22.4911 46.2134 21.5864 46.7767 20.6756 46.7767C19.7648 46.7767 18.8601 46.2134 18.0041 45.1085C17.1504 44.0065 16.372 42.3979 15.7141 40.3902C14.3992 36.3772 13.5822 30.8192 13.5822 24.6699C13.5822 18.5207 14.3992 12.9627 15.7141 8.94971C16.372 6.942 17.1504 5.33341 18.0041 4.23141C18.8601 3.12644 19.7648 2.56314 20.6756 2.56314C21.5864 2.56314 22.4911 3.12644 23.3471 4.23141C24.2008 5.33341 24.9793 6.942 25.6371 8.94971C26.952 12.9627 27.769 18.5207 27.769 24.6699Z" stroke="black" stroke-width="0.446602"/>
<path d="M20.6758 16.8544C26.2673 16.8544 31.3192 17.7512 34.9651 19.1932C36.7887 19.9145 38.2493 20.7678 39.2503 21.7039C40.251 22.6397 40.7767 23.6421 40.7767 24.6699C40.7767 25.6977 40.251 26.7001 39.2503 27.6359C38.2493 28.572 36.7887 29.4253 34.9651 30.1466C31.3192 31.5886 26.2673 32.4854 20.6758 32.4854C15.0843 32.4854 10.0324 31.5886 6.38653 30.1466C4.56295 29.4253 3.1023 28.572 2.10126 27.6359C1.10059 26.7001 0.574863 25.6977 0.574863 24.6699C0.574863 23.6421 1.10059 22.6397 2.10126 21.7039C3.1023 20.7678 4.56295 19.9145 6.38653 19.1932C10.0324 17.7512 15.0843 16.8544 20.6758 16.8544Z" stroke="black" stroke-width="0.446602"/>
<path d="M20.6755 3.90291C21.4916 3.90291 22.1183 3.18284 22.1183 2.33981C22.1183 1.49677 21.4916 0.776699 20.6755 0.776699C19.8594 0.776699 19.2328 1.49677 19.2328 2.33981C19.2328 3.18284 19.8594 3.90291 20.6755 3.90291Z" fill="black" stroke="black" stroke-width="0.446602"/>
<path d="M20.6755 33.8253C21.4916 33.8253 22.1183 33.1052 22.1183 32.2622C22.1183 31.4191 21.4916 30.6991 20.6755 30.6991C19.8594 30.6991 19.2328 31.4191 19.2328 32.2622C19.2328 33.1052 19.8594 33.8253 20.6755 33.8253Z" fill="black" stroke="black" stroke-width="0.446602"/>
<g filter="url(#filter0_d_104_3373)">
<ellipse cx="20.6755" cy="24.6701" rx="3.65836" ry="4.01942" fill="black"/>
<ellipse cx="20.6755" cy="24.6701" rx="3.65836" ry="4.01942" stroke="black" stroke-width="0.446602"/>
</g>
<path d="M25.6992 30.1891C21.7434 34.5353 17.591 37.8285 14.0816 39.643C12.326 40.5507 10.7421 41.0827 9.4306 41.1986C8.118 41.3146 7.10816 41.0124 6.45473 40.2945C5.8013 39.5766 5.52628 38.4671 5.63184 37.0249C5.73731 35.584 6.22151 33.8438 7.04768 31.915C8.6992 28.0591 11.6966 23.497 15.6524 19.1507C19.6083 14.8044 23.7606 11.5112 27.2701 9.69673C29.0257 8.78902 30.6096 8.25703 31.9211 8.14115C33.2337 8.02518 34.2435 8.32733 34.8969 9.04526C35.5504 9.76318 35.8254 10.8727 35.7198 12.3148C35.6144 13.7557 35.1302 15.4959 34.304 17.4248C32.6525 21.2806 29.6551 25.8428 25.6992 30.1891Z" stroke="black" stroke-width="0.446602"/>
<path d="M25.6989 19.1507C29.6548 23.497 32.6521 28.0591 34.3036 31.915C35.1298 33.8438 35.614 35.584 35.7195 37.025C35.825 38.4671 35.55 39.5766 34.8966 40.2945C34.2432 41.0124 33.2333 41.3146 31.9207 41.1986C30.6092 41.0828 29.0254 40.5508 27.2698 39.6431C23.7603 37.8285 19.608 34.5354 15.6521 30.1891C11.6962 25.8428 8.69885 21.2807 7.04734 17.4248C6.22117 15.496 5.73696 13.7558 5.6315 12.3148C5.52594 10.8727 5.80095 9.7632 6.45438 9.04528C7.10782 8.32736 8.11766 8.0252 9.43026 8.14118C10.7417 8.25705 12.3256 8.78905 14.0812 9.69675C17.5907 11.5113 21.743 14.8044 25.6989 19.1507Z" stroke="black" stroke-width="0.446602"/>
<path d="M34.9026 34.7186C35.7187 34.7186 36.3453 33.9985 36.3453 33.1555C36.3453 32.3124 35.7187 31.5924 34.9026 31.5924C34.0864 31.5924 33.4598 32.3124 33.4598 33.1555C33.4598 33.9985 34.0864 34.7186 34.9026 34.7186Z" fill="black" stroke="black" stroke-width="0.446602"/>
<path d="M6.44846 34.7186C7.26458 34.7186 7.89121 33.9985 7.89121 33.1555C7.89121 32.3124 7.26458 31.5924 6.44846 31.5924C5.63233 31.5924 5.0057 32.3124 5.0057 33.1555C5.0057 33.9985 5.63233 34.7186 6.44846 34.7186Z" fill="black" stroke="black" stroke-width="0.446602"/>
<defs>
<filter id="filter0_d_104_3373" x="13.1318" y="16.7651" width="15.0875" height="15.8099" filterUnits="userSpaceOnUse" color-interpolation-filters="sRGB">
<feFlood flood-opacity="0" result="BackgroundImageFix"/>
<feColorMatrix in="SourceAlpha" type="matrix" values="0 0 0 0 0 0 0 0 0 0 0 0 0 0 0 0 0 0 127 0" result="hardAlpha"/>
<feMorphology radius="1.33981" operator="dilate" in="SourceAlpha" result="effect1_dropShadow_104_3373"/>
<feOffset/>
<feGaussianBlur stdDeviation="1.16116"/>
<feComposite in2="hardAlpha" operator="out"/>
<feColorMatrix type="matrix" values="0 0 0 0 1 0 0 0 0 1 0 0 0 0 1 0 0 0 0.25 0"/>
<feBlend mode="normal" in2="BackgroundImageFix" result="effect1_dropShadow_104_3373"/>
<feBlend mode="normal" in="SourceGraphic" in2="effect1_dropShadow_104_3373" result="shape"/>
</filter>
</defs>
</svg>
