<svg width="159" height="129" viewBox="0 0 159 129" fill="none" xmlns="http://www.w3.org/2000/svg">
<path d="M96.5 54C96.5 67.765 94.4906 80.205 91.2575 89.186C89.6401 93.6786 87.726 97.2789 85.6257 99.7467C83.5236 102.216 81.2827 103.5 79 103.5C76.7173 103.5 74.4764 102.216 72.3743 99.7467C70.274 97.2789 68.3599 93.6786 66.7425 89.186C63.5094 80.205 61.5 67.765 61.5 54C61.5 40.235 63.5094 27.795 66.7425 18.814C68.3599 14.3214 70.274 10.7211 72.3743 8.25332C74.4764 5.78358 76.7173 4.5 79 4.5C81.2827 4.5 83.5236 5.78358 85.6257 8.25332C87.726 10.7211 89.6401 14.3214 91.2575 18.814C94.4906 27.795 96.5 40.235 96.5 54Z" stroke="#768E0F"/>
<path d="M79 36.4999C92.765 36.4999 105.205 38.5093 114.186 41.7424C118.679 43.3597 122.279 45.2738 124.747 47.3742C127.216 49.4763 128.5 51.7172 128.5 53.9999C128.5 56.2825 127.216 58.5234 124.747 60.6255C122.279 62.7259 118.679 64.64 114.186 66.2574C105.205 69.4905 92.765 71.4999 79 71.4999C65.235 71.4999 52.795 69.4905 43.814 66.2574C39.3214 64.64 35.7211 62.7259 33.2533 60.6255C30.7836 58.5234 29.5 56.2825 29.5 53.9999C29.5 51.7172 30.7836 49.4763 33.2533 47.3742C35.7211 45.2738 39.3214 43.3597 43.814 41.7424C52.795 38.5093 65.235 36.4999 79 36.4999Z" stroke="#768E0F"/>
<circle cx="79" cy="4" r="3.5" fill="white" stroke="#768E0F"/>
<circle cx="79" cy="71" r="3.5" fill="white" stroke="#768E0F"/>
<g filter="url(#filter0_d_100_721)">
<circle cx="79" cy="54" r="9" fill="white"/>
<circle cx="79" cy="54" r="9" stroke="#768E0F"/>
</g>
<path d="M0.761719 113.645C2.22005 113.697 3.35938 113.723 4.17969 113.723C9.76562 113.69 12.8581 113.664 13.457 113.645C13.5417 114.296 13.7077 114.914 13.9551 115.5C14.2025 116.079 14.5182 116.698 14.9023 117.355C14.8503 117.466 14.7363 117.554 14.5605 117.619C14.3262 117.176 14.043 116.783 13.7109 116.438C13.3789 116.092 12.959 115.767 12.4512 115.461C11.9499 115.155 11.3216 114.904 10.5664 114.709C9.81771 114.514 8.96159 114.383 7.99805 114.318H5.30273C5.2181 117.072 5.17578 119.146 5.17578 120.539H7.95898C8.14779 120.539 8.32357 120.526 8.48633 120.5C8.6556 120.467 8.81185 120.415 8.95508 120.344C9.09831 120.266 9.22526 120.194 9.33594 120.129C9.45312 120.057 9.57031 119.953 9.6875 119.816C9.80469 119.673 9.90234 119.556 9.98047 119.465C10.0586 119.367 10.153 119.221 10.2637 119.025C10.3743 118.83 10.459 118.677 10.5176 118.566C10.5762 118.456 10.6641 118.283 10.7812 118.049C10.9049 117.814 10.9993 117.639 11.0645 117.521C11.2663 117.6 11.39 117.684 11.4355 117.775C11.1621 118.257 10.931 118.791 10.7422 119.377C10.5534 119.963 10.459 120.451 10.459 120.842C10.459 121.766 10.7845 122.785 11.4355 123.898C11.3835 124.003 11.2598 124.09 11.0645 124.162C10.9928 124.032 10.8919 123.846 10.7617 123.605C10.638 123.358 10.5404 123.169 10.4688 123.039C10.3971 122.909 10.2995 122.743 10.1758 122.541C10.0521 122.339 9.94141 122.183 9.84375 122.072C9.7526 121.962 9.63216 121.838 9.48242 121.701C9.33919 121.564 9.19596 121.464 9.05273 121.398C8.90951 121.327 8.74349 121.268 8.55469 121.223C8.3724 121.171 8.17383 121.145 7.95898 121.145H5.17578C5.17578 122.18 5.21159 124.266 5.2832 127.404H8.39844C9.36198 127.339 10.2181 127.209 10.9668 127.014C11.722 126.818 12.3503 126.568 12.8516 126.262C13.3594 125.956 13.7793 125.63 14.1113 125.285C14.4434 124.94 14.7266 124.546 14.9609 124.104C15.1367 124.169 15.2507 124.253 15.3027 124.357C15.2702 124.423 15.1855 124.579 15.0488 124.826C14.9121 125.074 14.821 125.243 14.7754 125.334C14.7298 125.419 14.6517 125.572 14.541 125.793C14.4368 126.008 14.3587 126.184 14.3066 126.32C14.2546 126.451 14.1927 126.617 14.1211 126.818C14.056 127.02 14.0007 127.219 13.9551 127.414C13.916 127.603 13.8835 127.798 13.8574 128H5.2832C3.51888 128 2.00521 128.02 0.742188 128.059C0.716146 127.98 0.703125 127.915 0.703125 127.863C0.703125 127.818 0.716146 127.73 0.742188 127.6C1.04167 127.574 1.28255 127.548 1.46484 127.521C1.65365 127.489 1.88151 127.44 2.14844 127.375C2.42188 127.31 2.63021 127.219 2.77344 127.102C2.91667 126.978 2.99154 126.831 2.99805 126.662C3.07617 124.624 3.11523 122.57 3.11523 120.5C3.11523 118.391 3.08268 116.571 3.01758 115.041C3.01107 114.872 2.9362 114.729 2.79297 114.611C2.64974 114.488 2.44141 114.393 2.16797 114.328C1.90104 114.263 1.67318 114.217 1.48438 114.191C1.30208 114.159 1.0612 114.13 0.761719 114.104C0.735677 113.986 0.722656 113.905 0.722656 113.859C0.722656 113.82 0.735677 113.749 0.761719 113.645ZM140.43 113.645C141.654 113.697 143.193 113.723 145.049 113.723L148.828 123.957H148.877L152.812 113.723H153.936C154.743 113.723 155.882 113.697 157.354 113.645C157.38 113.749 157.393 113.82 157.393 113.859C157.393 113.905 157.38 113.986 157.354 114.104C157.119 114.123 156.93 114.143 156.787 114.162C156.644 114.182 156.452 114.214 156.211 114.26C155.977 114.305 155.788 114.361 155.645 114.426C155.501 114.484 155.374 114.569 155.264 114.68C155.153 114.784 155.094 114.904 155.088 115.041C155.023 116.571 154.99 118.391 154.99 120.5C154.99 122.642 155.033 124.696 155.117 126.662C155.124 126.831 155.199 126.978 155.342 127.102C155.485 127.219 155.69 127.31 155.957 127.375C156.23 127.44 156.458 127.489 156.641 127.521C156.829 127.548 157.074 127.574 157.373 127.6C157.399 127.704 157.412 127.792 157.412 127.863C157.412 127.915 157.399 127.98 157.373 128.059C156.273 128.02 155.14 128 153.975 128C152.803 128 151.67 128.02 150.576 128.059C150.55 127.98 150.537 127.915 150.537 127.863C150.537 127.753 150.55 127.665 150.576 127.6C150.876 127.574 151.117 127.548 151.299 127.521C151.488 127.489 151.715 127.44 151.982 127.375C152.256 127.31 152.464 127.219 152.607 127.102C152.751 126.978 152.826 126.831 152.832 126.662C152.897 124.631 152.93 122.818 152.93 121.223C152.93 119.693 152.897 117.951 152.832 115.998H152.754L148.291 127.756H148.193L143.438 115.764H143.33C143.278 117.346 143.252 119.165 143.252 121.223C143.252 122.733 143.285 124.497 143.35 126.516C143.363 127.108 144.082 127.469 145.508 127.6C145.54 127.71 145.557 127.798 145.557 127.863C145.557 127.928 145.54 127.993 145.508 128.059C144.473 128.02 143.548 128 142.734 128C142.214 128 141.341 128.02 140.117 128.059C140.085 127.993 140.068 127.928 140.068 127.863C140.068 127.753 140.085 127.665 140.117 127.6C141.556 127.463 142.275 127.102 142.275 126.516C142.354 124.484 142.393 122.479 142.393 120.5C142.393 119.074 142.373 117.561 142.334 115.959C142.327 115.686 142.311 115.458 142.285 115.275C142.259 115.087 142.21 114.924 142.139 114.787C142.067 114.65 141.992 114.543 141.914 114.465C141.836 114.387 141.715 114.318 141.553 114.26C141.39 114.195 141.23 114.149 141.074 114.123C140.924 114.09 140.71 114.055 140.43 114.016C140.404 113.964 140.391 113.905 140.391 113.84C140.391 113.762 140.404 113.697 140.43 113.645Z" fill="#768E0F"/>
<path d="M16.4648 113.645C17.9232 113.697 19.056 113.723 19.8633 113.723C20.6706 113.723 21.8034 113.697 23.2617 113.645C23.2878 113.749 23.3008 113.82 23.3008 113.859C23.3008 113.905 23.2878 113.986 23.2617 114.104C22.9622 114.13 22.7181 114.159 22.5293 114.191C22.347 114.217 22.1191 114.263 21.8457 114.328C21.5788 114.393 21.3737 114.488 21.2305 114.611C21.0872 114.729 21.0124 114.872 21.0059 115.041C20.9212 117.255 20.8789 119.315 20.8789 121.223C20.8789 122.206 20.9147 124.266 20.9863 127.404H24.0039C24.9609 127.339 25.8171 127.199 26.5723 126.984C27.3275 126.77 27.9557 126.496 28.457 126.164C28.9648 125.826 29.3815 125.477 29.707 125.119C30.0391 124.755 30.3255 124.348 30.5664 123.898C30.7357 123.964 30.8464 124.051 30.8984 124.162C30.6315 124.657 30.4232 125.057 30.2734 125.363C30.1302 125.669 29.9707 126.073 29.7949 126.574C29.6257 127.069 29.515 127.544 29.4629 128H20.9863C19.222 128 17.7083 128.02 16.4453 128.059C16.4193 127.98 16.4062 127.915 16.4062 127.863C16.4062 127.818 16.4193 127.73 16.4453 127.6C16.7448 127.574 16.9857 127.548 17.168 127.521C17.3568 127.489 17.5846 127.44 17.8516 127.375C18.125 127.31 18.3333 127.219 18.4766 127.102C18.6198 126.978 18.6947 126.831 18.7012 126.662C18.7793 124.624 18.8184 122.57 18.8184 120.5C18.8184 118.391 18.7858 116.571 18.7207 115.041C18.7142 114.872 18.6393 114.729 18.4961 114.611C18.3529 114.488 18.1445 114.393 17.8711 114.328C17.6042 114.263 17.3763 114.217 17.1875 114.191C17.0052 114.159 16.7643 114.13 16.4648 114.104C16.4388 113.986 16.4258 113.905 16.4258 113.859C16.4258 113.794 16.4388 113.723 16.4648 113.645ZM32.0703 113.645C33.5286 113.697 34.668 113.723 35.4883 113.723C41.0742 113.69 44.1667 113.664 44.7656 113.645C44.8503 114.296 45.0163 114.914 45.2637 115.5C45.5111 116.079 45.8268 116.698 46.2109 117.355C46.1589 117.466 46.0449 117.554 45.8691 117.619C45.6348 117.176 45.3516 116.783 45.0195 116.438C44.6875 116.092 44.2676 115.767 43.7598 115.461C43.2585 115.155 42.6302 114.904 41.875 114.709C41.1263 114.514 40.2702 114.383 39.3066 114.318H36.6113C36.5267 117.072 36.4844 119.146 36.4844 120.539H39.2676C39.4564 120.539 39.6322 120.526 39.7949 120.5C39.9642 120.467 40.1204 120.415 40.2637 120.344C40.4069 120.266 40.5339 120.194 40.6445 120.129C40.7617 120.057 40.8789 119.953 40.9961 119.816C41.1133 119.673 41.2109 119.556 41.2891 119.465C41.3672 119.367 41.4616 119.221 41.5723 119.025C41.6829 118.83 41.7676 118.677 41.8262 118.566C41.8848 118.456 41.9727 118.283 42.0898 118.049C42.2135 117.814 42.3079 117.639 42.373 117.521C42.5749 117.6 42.6986 117.684 42.7441 117.775C42.4707 118.257 42.2396 118.791 42.0508 119.377C41.862 119.963 41.7676 120.451 41.7676 120.842C41.7676 121.766 42.0931 122.785 42.7441 123.898C42.6921 124.003 42.5684 124.09 42.373 124.162C42.3014 124.032 42.2005 123.846 42.0703 123.605C41.9466 123.358 41.849 123.169 41.7773 123.039C41.7057 122.909 41.6081 122.743 41.4844 122.541C41.3607 122.339 41.25 122.183 41.1523 122.072C41.0612 121.962 40.9408 121.838 40.791 121.701C40.6478 121.564 40.5046 121.464 40.3613 121.398C40.2181 121.327 40.0521 121.268 39.8633 121.223C39.681 121.171 39.4824 121.145 39.2676 121.145H36.4844C36.4844 122.18 36.5202 124.266 36.5918 127.404H39.707C40.6706 127.339 41.5267 127.209 42.2754 127.014C43.0306 126.818 43.6589 126.568 44.1602 126.262C44.668 125.956 45.0879 125.63 45.4199 125.285C45.752 124.94 46.0352 124.546 46.2695 124.104C46.4453 124.169 46.5592 124.253 46.6113 124.357C46.5788 124.423 46.4941 124.579 46.3574 124.826C46.2207 125.074 46.1296 125.243 46.084 125.334C46.0384 125.419 45.9603 125.572 45.8496 125.793C45.7454 126.008 45.6673 126.184 45.6152 126.32C45.5632 126.451 45.5013 126.617 45.4297 126.818C45.3646 127.02 45.3092 127.219 45.2637 127.414C45.2246 127.603 45.1921 127.798 45.166 128H36.5918C34.8275 128 33.3138 128.02 32.0508 128.059C32.0247 127.98 32.0117 127.915 32.0117 127.863C32.0117 127.818 32.0247 127.73 32.0508 127.6C32.3503 127.574 32.5911 127.548 32.7734 127.521C32.9622 127.489 33.1901 127.44 33.457 127.375C33.7305 127.31 33.9388 127.219 34.082 127.102C34.2253 126.978 34.3001 126.831 34.3066 126.662C34.3848 124.624 34.4238 122.57 34.4238 120.5C34.4238 118.391 34.3913 116.571 34.3262 115.041C34.3197 114.872 34.2448 114.729 34.1016 114.611C33.9583 114.488 33.75 114.393 33.4766 114.328C33.2096 114.263 32.9818 114.217 32.793 114.191C32.6107 114.159 32.3698 114.13 32.0703 114.104C32.0443 113.986 32.0312 113.905 32.0312 113.859C32.0312 113.82 32.0443 113.749 32.0703 113.645ZM47.9688 113.645C49.1927 113.697 50.7324 113.723 52.5879 113.723L56.3672 123.957H56.416L60.3516 113.723H61.4746C62.2819 113.723 63.4212 113.697 64.8926 113.645C64.9186 113.749 64.9316 113.82 64.9316 113.859C64.9316 113.905 64.9186 113.986 64.8926 114.104C64.6582 114.123 64.4694 114.143 64.3262 114.162C64.1829 114.182 63.9909 114.214 63.75 114.26C63.5156 114.305 63.3268 114.361 63.1836 114.426C63.0404 114.484 62.9134 114.569 62.8027 114.68C62.6921 114.784 62.6335 114.904 62.627 115.041C62.5618 116.571 62.5293 118.391 62.5293 120.5C62.5293 122.642 62.5716 124.696 62.6562 126.662C62.6628 126.831 62.7376 126.978 62.8809 127.102C63.0241 127.219 63.2292 127.31 63.4961 127.375C63.7695 127.44 63.9974 127.489 64.1797 127.521C64.3685 127.548 64.6126 127.574 64.9121 127.6C64.9382 127.704 64.9512 127.792 64.9512 127.863C64.9512 127.915 64.9382 127.98 64.9121 128.059C63.8118 128.02 62.679 128 61.5137 128C60.3418 128 59.209 128.02 58.1152 128.059C58.0892 127.98 58.0762 127.915 58.0762 127.863C58.0762 127.753 58.0892 127.665 58.1152 127.6C58.4147 127.574 58.6556 127.548 58.8379 127.521C59.0267 127.489 59.2546 127.44 59.5215 127.375C59.7949 127.31 60.0033 127.219 60.1465 127.102C60.2897 126.978 60.3646 126.831 60.3711 126.662C60.4362 124.631 60.4688 122.818 60.4688 121.223C60.4688 119.693 60.4362 117.951 60.3711 115.998H60.293L55.8301 127.756H55.7324L50.9766 115.764H50.8691C50.8171 117.346 50.791 119.165 50.791 121.223C50.791 122.733 50.8236 124.497 50.8887 126.516C50.9017 127.108 51.6211 127.469 53.0469 127.6C53.0794 127.71 53.0957 127.798 53.0957 127.863C53.0957 127.928 53.0794 127.993 53.0469 128.059C52.0117 128.02 51.0872 128 50.2734 128C49.7526 128 48.8802 128.02 47.6562 128.059C47.6237 127.993 47.6074 127.928 47.6074 127.863C47.6074 127.753 47.6237 127.665 47.6562 127.6C49.0951 127.463 49.8145 127.102 49.8145 126.516C49.8926 124.484 49.9316 122.479 49.9316 120.5C49.9316 119.074 49.9121 117.561 49.873 115.959C49.8665 115.686 49.8503 115.458 49.8242 115.275C49.7982 115.087 49.7493 114.924 49.6777 114.787C49.6061 114.65 49.5312 114.543 49.4531 114.465C49.375 114.387 49.2546 114.318 49.0918 114.26C48.929 114.195 48.7695 114.149 48.6133 114.123C48.4635 114.09 48.2487 114.055 47.9688 114.016C47.9427 113.964 47.9297 113.905 47.9297 113.84C47.9297 113.762 47.9427 113.697 47.9688 113.645ZM66.4258 113.645C67.8841 113.697 69.0234 113.723 69.8438 113.723C75.4297 113.69 78.5221 113.664 79.1211 113.645C79.2057 114.296 79.3717 114.914 79.6191 115.5C79.8665 116.079 80.1823 116.698 80.5664 117.355C80.5143 117.466 80.4004 117.554 80.2246 117.619C79.9902 117.176 79.707 116.783 79.375 116.438C79.043 116.092 78.623 115.767 78.1152 115.461C77.6139 115.155 76.9857 114.904 76.2305 114.709C75.4818 114.514 74.6257 114.383 73.6621 114.318H70.9668C70.8822 117.072 70.8398 119.146 70.8398 120.539H73.623C73.8118 120.539 73.9876 120.526 74.1504 120.5C74.3197 120.467 74.4759 120.415 74.6191 120.344C74.7624 120.266 74.8893 120.194 75 120.129C75.1172 120.057 75.2344 119.953 75.3516 119.816C75.4688 119.673 75.5664 119.556 75.6445 119.465C75.7227 119.367 75.8171 119.221 75.9277 119.025C76.0384 118.83 76.123 118.677 76.1816 118.566C76.2402 118.456 76.3281 118.283 76.4453 118.049C76.569 117.814 76.6634 117.639 76.7285 117.521C76.9303 117.6 77.054 117.684 77.0996 117.775C76.8262 118.257 76.5951 118.791 76.4062 119.377C76.2174 119.963 76.123 120.451 76.123 120.842C76.123 121.766 76.4486 122.785 77.0996 123.898C77.0475 124.003 76.9238 124.09 76.7285 124.162C76.6569 124.032 76.556 123.846 76.4258 123.605C76.3021 123.358 76.2044 123.169 76.1328 123.039C76.0612 122.909 75.9635 122.743 75.8398 122.541C75.7161 122.339 75.6055 122.183 75.5078 122.072C75.4167 121.962 75.2962 121.838 75.1465 121.701C75.0033 121.564 74.86 121.464 74.7168 121.398C74.5736 121.327 74.4076 121.268 74.2188 121.223C74.0365 121.171 73.8379 121.145 73.623 121.145H70.8398C70.8398 122.18 70.8757 124.266 70.9473 127.404H74.0625C75.026 127.339 75.8822 127.209 76.6309 127.014C77.3861 126.818 78.0143 126.568 78.5156 126.262C79.0234 125.956 79.4434 125.63 79.7754 125.285C80.1074 124.94 80.3906 124.546 80.625 124.104C80.8008 124.169 80.9147 124.253 80.9668 124.357C80.9342 124.423 80.8496 124.579 80.7129 124.826C80.5762 125.074 80.485 125.243 80.4395 125.334C80.3939 125.419 80.3158 125.572 80.2051 125.793C80.1009 126.008 80.0228 126.184 79.9707 126.32C79.9186 126.451 79.8568 126.617 79.7852 126.818C79.7201 127.02 79.6647 127.219 79.6191 127.414C79.5801 127.603 79.5475 127.798 79.5215 128H70.9473C69.1829 128 67.6693 128.02 66.4062 128.059C66.3802 127.98 66.3672 127.915 66.3672 127.863C66.3672 127.818 66.3802 127.73 66.4062 127.6C66.7057 127.574 66.9466 127.548 67.1289 127.521C67.3177 127.489 67.5456 127.44 67.8125 127.375C68.0859 127.31 68.2943 127.219 68.4375 127.102C68.5807 126.978 68.6556 126.831 68.6621 126.662C68.7402 124.624 68.7793 122.57 68.7793 120.5C68.7793 118.391 68.7467 116.571 68.6816 115.041C68.6751 114.872 68.6003 114.729 68.457 114.611C68.3138 114.488 68.1055 114.393 67.832 114.328C67.5651 114.263 67.3372 114.217 67.1484 114.191C66.9661 114.159 66.7253 114.13 66.4258 114.104C66.3997 113.986 66.3867 113.905 66.3867 113.859C66.3867 113.82 66.3997 113.749 66.4258 113.645ZM82.1289 113.645C83.1966 113.697 84.5443 113.723 86.1719 113.723C90.7747 119.491 93.2487 122.564 93.5938 122.941C93.9388 123.312 94.1113 123.498 94.1113 123.498H94.1895C94.2155 122.248 94.2285 121.242 94.2285 120.48C94.2285 118.977 94.196 117.209 94.1309 115.178C94.1178 114.592 93.3952 114.234 91.9629 114.104C91.9368 113.96 91.9238 113.872 91.9238 113.84C91.9238 113.788 91.9368 113.723 91.9629 113.645C93.0111 113.684 93.9388 113.703 94.7461 113.703C95.2669 113.703 96.1393 113.684 97.3633 113.645C97.3893 113.723 97.4023 113.788 97.4023 113.84C97.4023 113.944 97.3893 114.032 97.3633 114.104C95.9375 114.234 95.2181 114.592 95.2051 115.178C95.127 117.215 95.0879 119.224 95.0879 121.203C95.0879 124.23 95.1204 126.509 95.1855 128.039L95.0098 128.059L85.3027 116.115H85.2051C85.166 117.801 85.1465 119.504 85.1465 121.223C85.1465 122.733 85.179 124.497 85.2441 126.516C85.2572 127.108 85.9766 127.469 87.4023 127.6C87.4349 127.71 87.4512 127.798 87.4512 127.863C87.4512 127.928 87.4349 127.993 87.4023 128.059C86.3672 128.02 85.4427 128 84.6289 128C84.1081 128 83.2357 128.02 82.0117 128.059C81.9792 127.993 81.9629 127.928 81.9629 127.863C81.9629 127.753 81.9792 127.665 82.0117 127.6C83.4505 127.463 84.1699 127.102 84.1699 126.516C84.248 124.484 84.2871 122.479 84.2871 120.5C84.2871 118.352 84.2611 116.486 84.209 114.904C83.6621 114.429 82.9688 114.162 82.1289 114.104C82.0898 114.019 82.0703 113.944 82.0703 113.879C82.0703 113.781 82.0898 113.703 82.1289 113.645ZM99.5508 113.645C100.26 113.671 101.146 113.69 102.207 113.703C103.268 113.716 104.515 113.723 105.947 113.723C107.38 113.723 108.626 113.716 109.688 113.703C110.755 113.69 111.647 113.671 112.363 113.645C112.402 113.924 112.451 114.195 112.51 114.455C112.568 114.709 112.666 114.992 112.803 115.305L113.096 115.969L113.809 117.355C113.763 117.46 113.649 117.548 113.467 117.619C113.245 117.209 112.975 116.818 112.656 116.447C112.337 116.076 111.93 115.741 111.436 115.441C110.947 115.142 110.348 114.891 109.639 114.689C108.936 114.488 108.086 114.351 107.09 114.279C107.057 115.093 107.031 116.014 107.012 117.043C106.999 118.065 106.992 119.204 106.992 120.461C106.992 121.724 106.999 122.87 107.012 123.898C107.031 124.927 107.057 125.848 107.09 126.662C107.096 126.818 107.158 126.952 107.275 127.062C107.393 127.167 107.552 127.255 107.754 127.326C107.962 127.398 108.2 127.456 108.467 127.502C108.74 127.541 109.033 127.574 109.346 127.6C109.372 127.71 109.385 127.798 109.385 127.863C109.385 127.922 109.372 127.987 109.346 128.059C108.252 128.02 107.119 128 105.947 128C104.782 128 103.649 128.02 102.549 128.059C102.523 127.987 102.51 127.922 102.51 127.863C102.51 127.798 102.523 127.71 102.549 127.6L103.018 127.551C103.187 127.531 103.376 127.505 103.584 127.473C103.792 127.434 103.984 127.382 104.16 127.316C104.342 127.251 104.495 127.17 104.619 127.072C104.743 126.975 104.805 126.854 104.805 126.711V126.662C104.837 125.471 104.863 124.361 104.883 123.332C104.902 122.303 104.912 121.346 104.912 120.461C104.912 119.582 104.902 118.632 104.883 117.609C104.863 116.581 104.837 115.471 104.805 114.279C103.867 114.331 103.05 114.458 102.354 114.66C101.663 114.855 101.064 115.103 100.557 115.402C100.049 115.695 99.6257 116.034 99.2871 116.418C98.9486 116.796 98.6686 117.196 98.4473 117.619C98.265 117.548 98.151 117.46 98.1055 117.355L98.5449 116.525L98.75 116.105C98.8346 115.93 98.9193 115.751 99.0039 115.568C99.0885 115.386 99.1667 115.197 99.2383 115.002C99.3164 114.8 99.3815 114.589 99.4336 114.367C99.4857 114.139 99.5247 113.898 99.5508 113.645ZM114.668 113.645C116.126 113.697 117.259 113.723 118.066 113.723C118.874 113.723 120.007 113.697 121.465 113.645C121.491 113.749 121.504 113.82 121.504 113.859C121.504 113.931 121.491 114.012 121.465 114.104C121.165 114.13 120.921 114.159 120.732 114.191C120.55 114.217 120.322 114.263 120.049 114.328C119.782 114.393 119.577 114.488 119.434 114.611C119.29 114.729 119.215 114.872 119.209 115.041C119.124 117.255 119.082 119.315 119.082 121.223C119.082 122.616 119.118 124.429 119.189 126.662C119.196 126.831 119.271 126.978 119.414 127.102C119.557 127.219 119.762 127.31 120.029 127.375C120.303 127.44 120.531 127.489 120.713 127.521C120.902 127.548 121.146 127.574 121.445 127.6C121.471 127.678 121.484 127.766 121.484 127.863C121.484 127.915 121.471 127.98 121.445 128.059C120.339 128.02 119.206 128 118.047 128C116.875 128 115.742 128.02 114.648 128.059C114.622 127.98 114.609 127.915 114.609 127.863C114.609 127.753 114.622 127.665 114.648 127.6C114.844 127.58 115 127.564 115.117 127.551C115.234 127.538 115.394 127.515 115.596 127.482C115.804 127.45 115.97 127.414 116.094 127.375C116.224 127.329 116.357 127.274 116.494 127.209C116.631 127.144 116.732 127.066 116.797 126.975C116.868 126.883 116.904 126.779 116.904 126.662C116.982 124.624 117.021 122.57 117.021 120.5C117.021 118.391 116.989 116.571 116.924 115.041C116.917 114.872 116.842 114.729 116.699 114.611C116.556 114.488 116.348 114.393 116.074 114.328C115.807 114.263 115.579 114.217 115.391 114.191C115.208 114.159 114.967 114.13 114.668 114.104C114.642 113.986 114.629 113.905 114.629 113.859C114.629 113.794 114.642 113.723 114.668 113.645ZM122.646 113.645C123.747 113.684 124.88 113.703 126.045 113.703C127.217 113.703 128.35 113.684 129.443 113.645C129.469 113.749 129.482 113.82 129.482 113.859C129.482 113.905 129.469 113.986 129.443 114.104C129.248 114.123 129.092 114.139 128.975 114.152C128.857 114.165 128.695 114.188 128.486 114.221C128.285 114.253 128.118 114.292 127.988 114.338C127.865 114.377 127.734 114.429 127.598 114.494C127.461 114.559 127.357 114.637 127.285 114.729C127.22 114.82 127.188 114.924 127.188 115.041C127.161 115.907 127.148 118.286 127.148 122.18C127.148 124.035 127.458 125.383 128.076 126.223C128.701 127.062 129.759 127.482 131.25 127.482C132.754 127.482 133.913 127.027 134.727 126.115C135.54 125.197 135.947 123.885 135.947 122.18C135.947 119.074 135.928 116.74 135.889 115.178C135.876 114.592 135.156 114.234 133.73 114.104C133.704 113.96 133.691 113.872 133.691 113.84C133.691 113.788 133.704 113.723 133.73 113.645C134.766 113.684 135.69 113.703 136.504 113.703C137.025 113.703 137.9 113.684 139.131 113.645C139.157 113.723 139.17 113.788 139.17 113.84C139.17 113.944 139.157 114.032 139.131 114.104C137.718 114.234 136.995 114.592 136.963 115.178C136.898 116.727 136.865 119.061 136.865 122.18C136.865 123.13 136.742 123.98 136.494 124.729C136.247 125.471 135.931 126.066 135.547 126.516C135.163 126.965 134.714 127.336 134.199 127.629C133.691 127.922 133.2 128.124 132.725 128.234C132.249 128.345 131.771 128.4 131.289 128.4C130.645 128.4 130.065 128.365 129.551 128.293C129.036 128.221 128.535 128.101 128.047 127.932C127.559 127.756 127.135 127.515 126.777 127.209C126.419 126.896 126.104 126.516 125.83 126.066C125.557 125.617 125.352 125.067 125.215 124.416C125.078 123.765 125.01 123.02 125.01 122.18V120.578C125.01 118.397 124.974 116.551 124.902 115.041C124.896 114.872 124.821 114.729 124.678 114.611C124.535 114.488 124.326 114.393 124.053 114.328C123.786 114.263 123.558 114.217 123.369 114.191C123.187 114.159 122.946 114.13 122.646 114.104C122.62 113.986 122.607 113.905 122.607 113.859C122.607 113.82 122.62 113.749 122.646 113.645Z" fill="white"/>
<path d="M91.3744 66.3744C81.6411 76.1077 71.4238 83.4833 62.7871 87.5476C58.4667 89.5807 54.5674 90.7731 51.3373 91.0328C48.1045 91.2928 45.6123 90.6159 43.9982 89.0018C42.3841 87.3877 41.7072 84.8955 41.9672 81.6627C42.227 78.4326 43.4193 74.5333 45.4524 70.2129C49.5168 61.5762 56.8924 51.3589 66.6257 41.6256C76.359 31.8923 86.5762 24.5167 95.2129 20.4524C99.5333 18.4193 103.433 17.2269 106.663 16.9672C109.896 16.7072 112.388 17.3841 114.002 18.9982C115.616 20.6123 116.293 23.1045 116.033 26.3373C115.773 29.5674 114.581 33.4667 112.548 37.7871C108.483 46.4238 101.108 56.6411 91.3744 66.3744Z" stroke="white"/>
<path d="M91.3744 41.6256C101.108 51.3589 108.483 61.5762 112.548 70.2129C114.581 74.5333 115.773 78.4326 116.033 81.6627C116.293 84.8955 115.616 87.3877 114.002 89.0018C112.388 90.6159 109.896 91.2928 106.663 91.0328C103.433 90.7731 99.5333 89.5807 95.2129 87.5476C86.5762 83.4833 76.3589 76.1077 66.6256 66.3744C56.8923 56.6411 49.5167 46.4238 45.4524 37.7871C43.4193 33.4667 42.2269 29.5674 41.9672 26.3373C41.7072 23.1045 42.3841 20.6123 43.9982 18.9982C45.6123 17.3841 48.1045 16.7072 51.3373 16.9672C54.5674 17.2269 58.4667 18.4193 62.7871 20.4524C71.4238 24.5167 81.6411 31.8923 91.3744 41.6256Z" stroke="white"/>
<circle cx="114" cy="73" r="3.5" fill="#768E0F" stroke="white"/>
<circle cx="44" cy="73" r="3.5" fill="#768E0F" stroke="white"/>
<defs>
<filter id="filter0_d_100_721" x="61.3" y="36.3" width="35.4" height="35.4" filterUnits="userSpaceOnUse" color-interpolation-filters="sRGB">
<feFlood flood-opacity="0" result="BackgroundImageFix"/>
<feColorMatrix in="SourceAlpha" type="matrix" values="0 0 0 0 0 0 0 0 0 0 0 0 0 0 0 0 0 0 127 0" result="hardAlpha"/>
<feMorphology radius="3" operator="dilate" in="SourceAlpha" result="effect1_dropShadow_100_721"/>
<feOffset/>
<feGaussianBlur stdDeviation="2.6"/>
<feComposite in2="hardAlpha" operator="out"/>
<feColorMatrix type="matrix" values="0 0 0 0 1 0 0 0 0 1 0 0 0 0 1 0 0 0 0.25 0"/>
<feBlend mode="normal" in2="BackgroundImageFix" result="effect1_dropShadow_100_721"/>
<feBlend mode="normal" in="SourceGraphic" in2="effect1_dropShadow_100_721" result="shape"/>
</filter>
</defs>
</svg>
