<svg width="101" height="106" viewBox="0 0 101 106" fill="none" xmlns="http://www.w3.org/2000/svg">
<path d="M67.8096 55.5142C67.8096 69.3813 65.7847 81.8973 62.5382 90.9152C60.9137 95.4278 58.9999 99.0176 56.9188 101.463C54.8348 103.911 52.6669 105.121 50.5136 105.121C48.3603 105.121 46.1925 103.911 44.1084 101.463C42.0274 99.0176 40.1136 95.4278 38.489 90.9152C35.2426 81.8973 33.2177 69.3813 33.2177 55.5142C33.2177 41.6472 35.2426 29.1312 38.489 20.1133C40.1136 15.6007 42.0274 12.0108 44.1084 9.56581C46.1925 7.11726 48.3603 5.90763 50.5136 5.90763C52.6669 5.90763 54.8348 7.11726 56.9188 9.56581C58.9999 12.0108 60.9137 15.6007 62.5382 20.1133C65.7847 29.1312 67.8096 41.6472 67.8096 55.5142Z" stroke="black" stroke-width="1.75764"/>
<path d="M50.5147 38.2188C64.3818 38.2188 76.8978 40.2437 85.9157 43.4901C90.4283 45.1146 94.0181 47.0284 96.4632 49.1095C98.9117 51.1935 100.121 53.3614 100.121 55.5147C100.121 57.668 98.9117 59.8358 96.4632 61.9199C94.0181 64.001 90.4283 65.9148 85.9157 67.5393C76.8978 70.7857 64.3818 72.8106 50.5147 72.8106C36.6477 72.8106 24.1317 70.7857 15.1138 67.5393C10.6012 65.9148 7.01133 64.001 4.5663 61.9199C2.11775 59.8358 0.908118 57.668 0.908118 55.5147C0.908118 53.3614 2.11775 51.1935 4.5663 49.1095C7.01133 47.0284 10.6012 45.1146 15.1138 43.4901C24.1317 40.2437 36.6477 38.2188 50.5147 38.2188Z" stroke="black" stroke-width="1.75764"/>
<circle cx="50.5155" cy="5.02913" r="3.90795" fill="black" stroke="black" stroke-width="1.75764"/>
<circle cx="50.5155" cy="72.68" r="3.90795" fill="black" stroke="black" stroke-width="1.75764"/>
<g filter="url(#filter0_d_157_1826)">
<circle cx="50.5141" cy="55.5146" r="9.08738" fill="black"/>
<circle cx="50.5141" cy="55.5146" r="9.08738" stroke="black" stroke-width="1.75764"/>
</g>
<path d="M62.7448 67.745C52.9393 77.5505 42.6573 84.9688 33.9852 89.0499C29.6455 91.092 25.7539 92.2772 22.5534 92.5345C19.3484 92.7923 16.9602 92.1147 15.4375 90.5921C13.9149 89.0695 13.2374 86.6813 13.4951 83.4762C13.7525 80.2758 14.9376 76.3841 16.9798 72.0445C21.0608 63.3723 28.4791 53.0904 38.2846 43.2849C48.0901 33.4794 58.3721 26.061 67.0443 21.98C71.3839 19.9378 75.2756 18.7527 78.476 18.4953C81.681 18.2376 84.0693 18.9151 85.5919 20.4378C87.1145 21.9604 87.7921 24.3486 87.5343 27.5536C87.277 30.7541 86.0918 34.6457 84.0496 38.9854C79.9686 47.6575 72.5503 57.9395 62.7448 67.745Z" stroke="black" stroke-width="1.75764"/>
<path d="M62.7445 43.2845C72.55 53.09 79.9684 63.372 84.0494 72.0441C86.0916 76.3838 87.2767 80.2754 87.5341 83.4759C87.7918 86.6809 87.1142 89.0691 85.5916 90.5918C84.069 92.1144 81.6808 92.7919 78.4757 92.5342C75.2753 92.2768 71.3836 91.0917 67.044 89.0495C58.3718 84.9685 48.0899 77.5501 38.2844 67.7447C28.4789 57.9392 21.0605 47.6572 16.9795 38.985C14.9373 34.6454 13.7522 30.7537 13.4948 27.5533C13.2371 24.3483 13.9147 21.96 15.4373 20.4374C16.9599 18.9148 19.3481 18.2372 22.5532 18.495C25.7536 18.7523 29.6452 19.9375 33.9849 21.9797C42.657 26.0607 52.939 33.479 62.7445 43.2845Z" stroke="black" stroke-width="1.75764"/>
<circle cx="85.8543" cy="74.6986" r="3.90795" fill="black" stroke="black" stroke-width="1.75764"/>
<circle cx="15.1741" cy="74.6995" r="3.90795" fill="black" stroke="black" stroke-width="1.75764"/>
<defs>
<filter id="filter0_d_157_1826" x="26.1352" y="31.1357" width="48.7579" height="48.7579" filterUnits="userSpaceOnUse" color-interpolation-filters="sRGB">
<feFlood flood-opacity="0" result="BackgroundImageFix"/>
<feColorMatrix in="SourceAlpha" type="matrix" values="0 0 0 0 0 0 0 0 0 0 0 0 0 0 0 0 0 0 127 0" result="hardAlpha"/>
<feMorphology radius="5.27292" operator="dilate" in="SourceAlpha" result="effect1_dropShadow_157_1826"/>
<feOffset/>
<feGaussianBlur stdDeviation="4.56987"/>
<feComposite in2="hardAlpha" operator="out"/>
<feColorMatrix type="matrix" values="0 0 0 0 1 0 0 0 0 1 0 0 0 0 1 0 0 0 0.25 0"/>
<feBlend mode="normal" in2="BackgroundImageFix" result="effect1_dropShadow_157_1826"/>
<feBlend mode="normal" in="SourceGraphic" in2="effect1_dropShadow_157_1826" result="shape"/>
</filter>
</defs>
</svg>
